<svg xmlns="http://www.w3.org/2000/svg" version="1.1" xmlns:xlink="http://www.w3.org/1999/xlink"
     xmlns:svgjs="http://svgjs.dev/svgjs" viewBox="0 0 800 800">
    <defs>
        <linearGradient x1="50%" y1="0%" x2="50%" y2="100%" id="nnneon-grad">
            <stop stop-color="hsl(162, 100%, 58%)" stop-opacity="1" offset="0%"></stop>
            <stop stop-color="hsl(270, 73%, 53%)" stop-opacity="1" offset="100%"></stop>
        </linearGradient>
        <filter id="nnneon-filter" x="-100%" y="-100%" width="400%" height="400%" filterUnits="objectBoundingBox"
                primitiveUnits="userSpaceOnUse" color-interpolation-filters="sRGB">
            <feGaussianBlur stdDeviation="29 29" x="0%" y="0%" width="100%" height="100%" in="SourceGraphic"
                            edgeMode="none" result="blur"></feGaussianBlur>
        </filter>
        <filter id="nnneon-filter2" x="-100%" y="-100%" width="400%" height="400%" filterUnits="objectBoundingBox"
                primitiveUnits="userSpaceOnUse" color-interpolation-filters="sRGB">
            <feGaussianBlur stdDeviation="17 17" x="0%" y="0%" width="100%" height="100%" in="SourceGraphic"
                            edgeMode="none" result="blur"></feGaussianBlur>
        </filter>
    </defs>
    <g stroke-width="44" stroke="url(#nnneon-grad)" fill="none">
        <path d="M378.96979813769826 119.81934471370965C387.5855429378387 102.40953359795776 412.41446763148906 102.40953359795776 421.0302124316295 119.81934471370965L688.0361794854327 659.3686311438466C695.7532777010267 674.9623784046671 684.4063981112994 693.2379874047467 667.0083186741971 693.2379874047467H132.99169189513066C115.59361245802813 693.2379874047467 104.24673286830097 674.9623784046671 111.963831083895 659.3686311438466L378.96979813769826 119.81934471370965Z "
              filter="url(#nnneon-filter)"></path>
        <path d="M378.96979813769826 119.81934471370965C387.5855429378387 102.40953359795776 412.41446763148906 102.40953359795776 421.0302124316295 119.81934471370965L688.0361794854327 659.3686311438466C695.7532777010267 674.9623784046671 684.4063981112994 693.2379874047467 667.0083186741971 693.2379874047467H132.99169189513066C115.59361245802813 693.2379874047467 104.24673286830097 674.9623784046671 111.963831083895 659.3686311438466L378.96979813769826 119.81934471370965Z "
              filter="url(#nnneon-filter2)" opacity="0.25"></path>
        <path d="M378.96979813769826 119.81934471370965C387.5855429378387 102.40953359795776 412.41446763148906 102.40953359795776 421.0302124316295 119.81934471370965L688.0361794854327 659.3686311438466C695.7532777010267 674.9623784046671 684.4063981112994 693.2379874047467 667.0083186741971 693.2379874047467H132.99169189513066C115.59361245802813 693.2379874047467 104.24673286830097 674.9623784046671 111.963831083895 659.3686311438466L378.96979813769826 119.81934471370965Z "
              filter="url(#nnneon-filter2)" opacity="0.25"></path>
        <path d="M378.96979813769826 119.81934471370965C387.5855429378387 102.40953359795776 412.41446763148906 102.40953359795776 421.0302124316295 119.81934471370965L688.0361794854327 659.3686311438466C695.7532777010267 674.9623784046671 684.4063981112994 693.2379874047467 667.0083186741971 693.2379874047467H132.99169189513066C115.59361245802813 693.2379874047467 104.24673286830097 674.9623784046671 111.963831083895 659.3686311438466L378.96979813769826 119.81934471370965Z "></path>
    </g>
</svg>