<svg xmlns="http://www.w3.org/2000/svg" version="1.1" xmlns:xlink="http://www.w3.org/1999/xlink"
     xmlns:svgjs="http://svgjs.dev/svgjs" viewBox="0 0 800 800">
    <defs>
        <linearGradient x1="50%" y1="0%" x2="50%" y2="100%" id="uundulate-grad">
<!--            <stop stop-color="hsl(270, 73%, 53%)" stop-opacity="1" offset="45%"></stop>-->
<!--            <stop stop-color="hsl(162, 100%, 58%)" stop-opacity="1" offset="100%"></stop>-->
            <stop stop-color="hsl(162, 100%, 58%)" stop-opacity="1" offset="25%"></stop>
            <stop stop-color="hsl(270, 73%, 53%)" stop-opacity="1" offset="75%"></stop>
        </linearGradient>
    </defs>
    <g stroke-width="2" stroke="url(#uundulate-grad)" fill="none">
        <path d="M1155.388942448982 -403.9944782931529C1233.7941127789459 -224.14581581979587 979.92320413778 347.1799967532786 792.1269992828818 691.7148047971134C604.3307944279836 1036.2496128409482 408.8841137066006 1289.2511583279374 253.96715914547156 1249.772600317253C99.05020458434274 1210.2940423065686 176.30071230214435 795.3129370409979 48.52561738946531 502.2177263458268C-79.24947752321373 209.1225156506557 -435.8650806665532 -16.7143065568946 -359.35329643538904 -157.08441101956714C-282.8415122042249 -297.4545154822398 100.21088193147682 -120.11917772633603 415.78218169905404 -171.55877507499963C731.3534814666309 -222.99837242366334 1076.9837721190183 -583.8431407665098 1155.388942448982 -403.9944782931529C1233.7941127789459 -224.14581581979587 979.92320413778 347.1799967532786 792.1269992828818 691.7148047971134 "></path>
        <path d="M1133.8063463045135 -381.0232397462168C1209.971368910764 -206.3131104863844 963.3539148022028 348.68910744174514 780.9233158003017 683.3800638271846C598.4927167984006 1018.071020212624 408.6302269547714 1263.843950114271 258.1394710953889 1225.4933509038917C107.64871523600664 1187.1427516935125 182.69206559044244 784.0182494355297 58.56768767526853 499.2971876173633C-65.55669023990527 214.57612579919703 -411.983276150578 -4.808215773851657 -337.6575428974471 -141.16774582330504C-263.33180964431625 -277.5272758727583 108.77623037322246 -105.25866205273758 415.33120729029724 -155.22855662001075C721.8861842073723 -205.19845118728404 1057.641323698263 -555.7333690060493 1133.8063463045135 -381.0232397462168C1209.971368910764 -206.3131104863844 963.3539148022028 348.68910744174514 780.9233158003017 683.3800638271846 "></path>
        <path d="M1112.2237501600446 -358.05200119928077C1186.1486250425821 -188.48040515297282 946.7846254666256 350.19821813021167 769.7196323177216 675.0453228572558C592.6546391688175 999.8924275843001 408.3763402029422 1238.4367419006041 262.31178304530624 1201.2141014905303C116.24722588767054 1163.9914610804565 189.08341887874053 772.7235618300613 68.60975796107175 496.37664888890004C-51.86390295659703 220.0297359477387 -388.10147163460283 7.097875009191284 -315.9617893595052 -125.25108062704282C-243.8221070844076 -257.60003626327693 117.34157881496833 -90.39814637913923 414.8802328815409 -138.89833816502198C712.4188869481136 -187.39852995090484 1038.2988752775075 -527.6235972455887 1112.2237501600446 -358.05200119928077C1186.1486250425821 -188.48040515297282 946.7846254666256 350.19821813021167 769.7196323177216 675.0453228572558 "></path>
        <path d="M1090.6412455683105 -335.08073213476655C1162.3259727271345 -170.64766930198311 930.2154276837825 351.70735933625656 758.5160403878758 666.7106124049055C586.8166530919689 981.7138654735543 408.12254500384734 1213.0295642045157 266.48418654795796 1176.9348825947473C124.84582809206881 1140.8402009849788 195.474863719773 761.4289047421712 78.65191979960935 493.4561406780149C-38.17102412055431 225.48337661385835 -364.21957556589325 19.003996309812464 -294.2659442688289 -109.33438491320248C-224.31231297176458 -237.67276613621743 125.90701880944835 -75.53760018796254 414.42935002551894 -122.56808919245509C702.9516812415895 -169.59857819694753 1018.9565184094865 -499.51379496755004 1090.6412455683105 -335.08073213476655C1162.3259727271345 -170.64766930198311 930.2154276837825 351.70735933625656 758.5160403878758 666.7106124049055 "></path>
        <path d="M1069.0587714941541 -312.10943255267426C1138.5033509292653 -152.81490293341528 913.6462604185181 353.21653105987934 747.3124789756082 658.3759324701327C580.9786975326986 963.5353338803866 407.8687803223306 1187.6224170260055 270.6566205681878 1152.655694216542C133.4444608140451 1117.6889714070787 201.8663390783836 750.1342781718593 88.69411215572507 490.53566298470787C-24.47811476693346 230.93704779755615 -340.3376489796056 30.910148128011542 -272.5700686605745 -93.41765868178413C-204.80248834154338 -217.7454654915798 134.4724893215066 -60.677023479207946 413.9784976870749 -106.23780970230996C693.4845060526432 -151.79859592541197 999.6141920590435 -471.40396217193324 1069.0587714941541 -312.10943255267426C1138.5033509292653 -152.81490293341528 913.6462604185181 353.21653105987934 747.3124789756082 658.3759324701327 "></path>
        <path d="M1047.4762058672636 -289.1381329705819C1114.6806375786612 -134.98213656484745 897.077001600519 354.72570278350213 736.1088260106062 650.0412525353604C575.1406504206936 945.3568022872189 407.6149240880794 1162.2152698474952 274.8289630356833 1128.3765058383372C142.04300198328713 1094.537741829179 208.25772288425992 738.8396516015473 98.73621295910641 487.6151852914004C-10.785296966046985 236.39071898125383 -316.4558139460523 42.81629994621085 -250.87428460505447 -77.50093245036567C-185.2927552640566 -197.81816484694212 143.03786828083048 -45.81644677045324 413.52755379589667 -89.90753021216494C684.0172393109629 -133.99861365387665 980.2717741558661 -443.29412937631645 1047.4762058672636 -289.1381329705819C1114.6806375786612 -134.98213656484745 897.077001600519 354.72570278350213 736.1088260106062 650.0412525353604 "></path>
        <path d="M1025.893640240373 -266.166924941224C1090.8579242280575 -117.14946174901388 880.5077427825199 356.23478295439065 724.9051730456044 641.7064810478537C569.3026033086887 927.1781791413168 407.36106785382833 1136.8080311162507 279.00130550317874 1104.097225907398C150.64154315252904 1071.386420698545 214.64910669013602 727.544933478501 108.77831376248776 484.6946160453592C2.907520834839488 241.84429861221724 -292.57397891249894 54.722360211675664 -229.17850054953442 -61.58429777168158C-165.78302218656984 -177.89095575503882 151.60324724015436 -30.95596161443291 413.07660990471834 -73.57734227475419C674.5499725692821 -116.19872293507547 960.9293562526889 -415.184388133434 1025.893640240373 -266.166924941224C1090.8579242280575 -117.14946174901388 880.5077427825199 356.23478295439065 724.9051730456044 641.7064810478537 "></path>
        <path d="M1004.3111356486388 -243.19559484155354C1067.03527191261 -99.31666486286804 863.9385449996771 357.74398519559156 713.7015811157585 633.3718316306595C563.4646172318401 908.9996780657273 407.1072726547335 1111.4009144553183 283.17370900583046 1079.818068046771C159.24014535692731 1048.2352216382235 221.0405515311686 716.2503374257672 118.82047560102535 481.7741688696301C16.60039967088221 247.29800031349316 -268.6920828437894 66.62854254745298 -207.48265545885812 -45.667541022684986C-146.27322807392682 -157.96362459282307 160.1686872346345 -16.095354388100077 412.62572704869626 -57.247032267031045C665.0827668627578 -98.3987101459619 941.5869993846677 -387.0745248202391 1004.3111356486388 -243.19559484155354C1067.03527191261 -99.31666486286804 863.9385449996771 357.74398519559156 713.7015811157585 633.3718316306595 "></path>
        <path d="M982.7286310569045 -220.22429525946126C1043.2126195971623 -81.4838984943002 847.3693472168343 359.25315691921435 702.497989185913 625.0371516958867C557.6266311549914 890.8211464725593 406.85347745563865 1085.9937672768083 287.34611250848207 1055.5388796685659C167.8387475613256 1025.0839920603237 227.43199637220096 704.955710855455 128.86263743956306 478.8536911763231C30.293278506924935 252.75167149719096 -244.81018677507984 78.53469436565229 -185.78681036818182 -29.75081479126652C-126.7634339612838 -138.03632394818538 168.73412722911462 -1.2347776793453704 412.1748441926742 -40.916752776885914C655.6155611562338 -80.59872787442646 922.2446425166468 -358.9646920246223 982.7286310569045 -220.22429525946126C1043.2126195971623 -81.4838984943002 847.3693472168343 359.25315691921435 702.497989185913 625.0371516958867 "></path>
        <path d="M961.146065430014 -197.25305671252517C1019.3899062465584 -63.651193160888624 830.8000883988352 360.762267607681 691.294336220911 616.7024107259583C551.7885840429865 872.6425538442356 406.59962122138757 1060.5865590631417 291.51845497597765 1031.2596302552047C176.43728873056762 1001.9327014472678 233.8233801780773 693.661023249987 138.9047382429444 475.9331524478598C43.986096307811295 258.2052816457326 -220.92835174152657 90.44078514869523 -164.09102631266177 -13.834149595004419C-107.25370088379702 -118.10908433870395 177.2995061884385 13.625737994253086 411.72390030149586 -24.586534321897034C646.1482944145532 -62.798806638047154 902.9022246134693 -330.85492026416176 961.146065430014 -197.25305671252517C1019.3899062465584 -63.651193160888624 830.8000883988352 360.762267607681 691.294336220911 616.7024107259583 "></path>
        <path d="M939.5634998031235 -174.28175713043288C995.5671928959546 -45.81842679232079 814.2308295808361 362.2714393313038 680.090683255909 608.3677307911857C545.9505369309816 854.4640222510677 406.3457649871365 1035.1794118846312 295.690797443473 1006.9804418769997C185.03582989980964 978.781471869368 240.2147639839535 682.3663966796748 148.94683904632575 473.01267475455256C57.67891410869777 263.6589528294303 -197.04651670797324 102.34693696689442 -142.39524225714172 2.0825766364140463C-87.7439678063102 -98.18178369406633 185.86488514776238 28.486314703007793 411.27295641031753 -8.256254831752017C636.6810276728725 -44.99882436651171 883.5598067102922 -302.74508746854497 939.5634998031235 -174.28175713043288C995.5671928959546 -45.81842679232079 814.2308295808361 362.2714393313038 680.090683255909 608.3677307911857 "></path>
        <path d="M917.9809952113892 -151.3105185834968C971.7445405805072 -27.98572145890921 797.6616317979933 363.78055001977043 668.887091326063 600.0329898212572C540.112550854133 836.2854296227438 406.09196978804164 1009.7722036709647 299.86320094612483 982.7011924636383C193.6344321042078 955.630181256312 246.60620882498597 671.0717090742064 158.98900088486334 470.0921360260892C71.37179294474049 269.1125629779717 -173.16462063926372 114.25302774993747 -120.69939716646542 17.99924183267626C-68.23417369366717 -78.25454408458495 194.4303251422425 43.34683037660625 410.82207355429546 8.073963623236864C627.2138219663484 -27.19890313013252 864.217449842271 -274.63531570808436 917.9809952113892 -151.3105185834968C971.7445405805072 -27.98572145890921 797.6616317979933 363.78055001977043 668.887091326063 600.0329898212572 "></path>
        <path d="M896.3984906196547 -128.3392800365607C947.9218882650596 -10.15301612549763 781.0924340151505 365.2896607082371 657.6834993962175 591.6982488513286C534.2745647772844 818.1068369944198 405.8381745889468 984.3649954572984 304.03560444877644 958.4219430502774C202.23303430860597 932.4788906432561 252.99765366601855 659.7770214687384 169.03116272340094 467.1715972976259C85.06467178078321 274.5661731265134 -149.28272457055414 126.15911853298041 -99.00355207578912 33.91590702893836C-48.72437958102415 -58.32730447510352 202.99576513672264 58.207346050204706 410.37119069827327 24.40418207822563C617.7466162598239 -9.39898189375333 844.87509297425 -246.52554394762387 896.3984906196547 -128.3392800365607C947.9218882650596 -10.15301612549763 781.0924340151505 365.2896607082371 657.6834993962175 591.6982488513286 "></path>
        <path d="M874.8158334400298 -105.36798045446841C924.0990833617216 7.6797502430702025 764.523083644417 366.79883243185986 646.4797548784809 583.363568916556C528.4364261125451 799.9283054012521 405.58422680196134 958.9578482787881 308.2078553635374 934.1427546720722C210.83148392511362 909.3276610653563 259.3889459191603 648.4823948984263 179.0731719740479 464.25111960431866C98.75739802893531 280.01984431021117 -125.40098108973518 138.0652703511796 -77.3078595730035 49.83263326035683C-29.214738056271756 -38.40000383046589 211.56105254331214 73.0679227589593 409.9201552543607 40.73446156837076C608.2792579654092 8.401000377782168 825.5325835183385 -218.41571115200708 874.8158334400298 -105.36798045446841C924.0990833617216 7.6797502430702025 764.523083644417 366.79883243185986 646.4797548784809 583.363568916556 "></path>
        <path d="M853.2333288482955 -82.39680294268862C900.276431046274 25.512394541325534 747.9538858615742 368.30788208517026 635.2761629486354 575.0287669114712C522.5984400356964 781.7496517377722 405.3304316028666 933.5505790299655 312.38025886618925 909.8634442235548C219.4300861295119 886.1763094171442 265.78039076019286 637.1876462578018 189.1153338125854 461.33051984069925C112.45027686497804 285.47339342359646 -101.51908502102566 149.9713000990664 -55.6120144823272 65.7492374214628C-9.704943943628678 -18.47282525614071 220.12649253779227 87.9283773974015 409.4692723983385 57.06461898820339C598.8120522588848 26.200860579005166 806.1902266503173 -190.30600042670278 853.2333288482955 -82.39680294268862C900.276431046274 25.512394541325534 747.9538858615742 368.30788208517026 635.2761629486354 575.0287669114712 "></path>
        <path d="M831.6508242565612 -59.42544232544003C876.4537787308263 43.345221945049616 731.3846880787314 369.8171148439494 624.0725710187896 566.694148011855C516.7604539588478 763.5711811797605 405.0766364037718 908.1434928866115 316.55266236884086 885.5843168805059C228.02868833391017 863.0251408744007 272.1718356012253 625.8930807226461 199.1574956511231 458.41010318254826C126.14315570102076 290.9271256424505 -77.63718895231608 161.87751295242174 -33.9161693916509 81.66602468803751C9.804850169014344 1.4545364236531668 228.6919325322724 102.78901514131246 409.0183895423165 73.39495951350466C589.3448465523605 44.00090388569686 786.8478697822961 -162.19610659592973 831.6508242565612 -59.42544232544003C876.4537787308263 43.345221945049616 731.3846880787314 369.8171148439494 624.0725710187896 566.694148011855 "></path>
        <path d="M810.0681975945145 -36.45423429608212C852.6310043450662 61.17789676088307 714.8153682255761 371.3261950148378 612.8688570186314 558.359376524348C510.9223458116867 745.3925580338582 404.82271913436443 882.7362541553666 320.7249438011802 861.3050369495668C236.62716846799594 839.8738197437665 278.5631583719453 614.5983625995996 209.1995354193482 455.48953393650675C139.83591246675098 296.3807052734139 -53.75541495391906 173.78357321788667 -12.220446371287096 97.5826593667216C29.314522211344865 21.381745515556418 237.25725045644003 117.64950029733279 408.56738461598184 89.72514745091536C579.8775187755238 61.80079460449798 767.5053908439627 -134.0863653530473 810.0681975945145 -36.45423429608212C852.6310043450662 61.17789676088307 714.8153682255761 371.3261950148378 612.8688570186314 558.359376524348 "></path>
        <path d="M788.48569300278 -13.482904196411653C828.8083520296186 79.01069364702903 698.2461704427333 372.83539725603873 601.6652650887856 550.0247271071538C505.084359734838 727.2140569582689 404.5689239352696 857.3291374944347 324.8973473038318 837.0258790889397C245.2257706723941 816.722620683445 284.9546032129779 603.3037665468659 219.2416972578858 452.56908676077774C153.5287913027937 301.8344069746897 -29.873518885209478 185.68975555366399 9.475398719389204 113.49941611571808C48.82431632398789 41.309076677772225 245.82269045092016 132.5101075236655 408.1165017599599 106.05545745863856C570.4103130689995 79.60080739361155 748.1630339759417 -105.97650203985233 788.48569300278 -13.482904196411653C828.8083520296186 79.01069364702903 698.2461704427333 372.83539725603873 601.6652650887856 550.0247271071538 "></path>
        <path d="M766.9030968583115 9.488425903258758C804.9856081614366 96.84349053317499 681.6768811071561 374.34459949723976 590.4615816062055 541.6900776899595C499.246282105255 709.0355558826791 404.3150371834404 831.9220208335028 329.06965925374914 812.7467212283132C253.824281324058 793.5714216231236 291.34595650127585 592.009170494132 229.283767543689 449.64863958504884C167.22157858610205 307.28810867596576 -5.99171436923433 197.5959378894413 31.17115225733113 129.41617286471467C68.33401888389653 61.23640783998803 254.38803889266592 147.37071474999834 407.6655273512033 122.38576746636181C560.9430158097408 97.40082018272517 728.8205855551862 -77.86663872665747 766.9030968583115 9.488425903258758C804.9856081614366 96.84349053317499 681.6768811071561 374.34459949723976 590.4615816062055 541.6900776899595 "></path>
        <path d="M745.3206533017333 32.459633932616725C781.1630168811453 114.67616534900844 665.1077443594694 375.8536796681283 579.258050711516 533.3553062024528C493.40835706356256 690.8569327367773 404.0613030195018 806.5147821022579 333.2421237915571 788.4674412973736C262.42294456361253 770.4201004924894 297.7374623774647 580.7144523710856 239.32599041738285 446.72807033900744C180.91451845730097 312.7416883069292 17.8902427346315 209.50199815490623 52.86705838316368 145.33280754339876C87.84387403169586 81.16361693189128 262.9535399223023 162.23119990601873 407.2147055303376 138.71595540377245C551.4758711383729 115.20071090152624 709.4782897223214 -49.75689748377499 745.3206533017333 32.459633932616725C781.1630168811453 114.67616534900844 665.1077443594694 375.8536796681283 579.258050711516 533.3553062024528 "></path>
        <path d="M723.7381181924209 55.430902997130886C757.3403340481195 132.50890119999815 648.5385160590486 377.36282087417294 568.0544282640922 525.0205957501021C487.5703404691359 672.6783706260313 403.80747730282883 781.1076044061695 337.4144967766307 764.1882224015903C271.02151625043257 747.2688403970114 304.128876700919 569.4197952831955 249.36812173834232 443.8075621281221C194.60736677576557 318.19532897304885 41.7721082857629 221.4081194555273 74.56287295626186 161.24950325723904C107.35363762676076 101.09088705895078 271.5189493992043 177.09174609719526 406.7637921567374 155.0462043763394C542.0086349142705 133.00066265548355 690.1359023367221 -21.647095205736377 723.7381181924209 55.430902997130886C757.3403340481195 132.50890119999815 648.5385160590486 377.36282087417294 568.0544282640922 525.0205957501021 "></path>
        <path d="M702.1555220479522 78.4021720616451C733.5175901799378 150.34163705098786 631.9692267234714 378.8719620802176 556.850744781512 516.6858852977516C481.73226283955285 654.4998085152855 403.5535905509996 755.700426710081 341.58680872654804 739.9090035058075C279.62002690209647 724.1175803015336 310.5202299892171 558.1251381953055 259.41019202414554 440.8870539172369C208.30015405907392 323.6489696391684 65.6539128017381 233.31424075614837 96.25862649420378 177.16619897107938C126.8633401866694 121.01815718601034 280.08429784095006 191.95229228837184 406.31281774798094 171.37645334890635C532.5413376550117 150.80061440944093 670.7934539159667 6.462707072302351 702.1555220479522 78.4021720616451C733.5175901799378 150.34163705098786 631.9692267234714 378.8719620802176 556.850744781512 516.6858852977516 "></path>
        <path d="M680.5730174562179 101.37347164373739C709.6949378644902 168.1744034195557 615.4000289406285 380.3811338038405 545.6471528516664 508.35120536297916C475.8942767627042 636.3212769221178 403.2997953519048 730.2932795315709 345.75921222919976 715.6298151276023C288.21862910649475 700.9663507236339 316.9116748302496 546.8305116249935 269.45235386268314 437.9665762239299C221.99303289511658 329.1026408228663 89.53580887044768 245.22039257434767 117.95447158488003 193.0829252024978C146.37313429931243 140.94545783064802 288.6497378354302 206.81286899712654 405.86193489195887 187.70673283905148C523.0741319484875 168.60059668097642 651.4510970479456 34.57253986791915 680.5730174562179 101.37347164373739C709.6949378644902 168.1744034195557 615.4000289406285 380.3811338038405 545.6471528516664 508.35120536297916 "></path>
        <path d="M658.9904518293274 124.3447407082516C685.8722245138864 186.0071392705454 598.8307701226295 381.8902750098853 534.4434998866643 500.0164949106286C470.0562296506994 618.1427148113719 403.0459391176537 704.8861018354823 349.93155469669523 691.3505962318192C296.8171702757367 677.815090628156 323.3030586361258 535.5358545371032 279.4944546660645 435.04606801304453C235.68585069600306 334.55628148898586 113.41764390400095 257.12651387496874 139.65025564040008 208.99962091633813C165.88286737679925 160.87272795770753 297.21511679475407 221.67341518830312 405.41099100078054 204.03698181161843C513.606865206807 186.40054843493374 632.1086791447683 62.68234214595782 658.9904518293274 124.3447407082516C685.8722245138864 186.0071392705454 598.8307701226295 381.8902750098853 534.4434998866643 500.0164949106286 "></path>
        <path d="M637.4079167200149 147.3160402903439C662.0495416808608 203.83990563911323 582.2615418222085 383.39944673350806 523.2398774392404 491.6818149758561C464.2182130562726 599.9641832182042 402.7921134009807 679.4789546569722 354.1039276817687 667.0714078536142C305.4157419625568 654.6638610502563 329.69447295958014 524.2412279667913 289.53658598702395 432.1255903197375C249.37869901446766 340.00995267268377 137.2995094551324 269.0326656931679 161.34607021349825 224.91634714775654C185.39263097186415 180.80002860234515 305.7805262716561 236.53399189705777 404.96007762718034 220.3672613017635C504.1396289827046 204.20053070646918 612.7662917591692 90.79217494157461 637.4079167200149 147.3160402903439C662.0495416808608 203.83990563911323 582.2615418222085 383.39944673350806 523.2398774392404 491.6818149758561 "></path>
        <path d="M615.8254731634369 170.28727883727998C638.2269504005694 221.6726109725248 565.692405074522 384.9085574219747 512.0363465445511 483.3470740059274C458.3802880145802 581.7855905898803 402.53837923704214 654.0717464433058 358.2763922195767 642.7921584402529C314.01440520211133 631.5125704372003 336.0859788357689 512.9465403613231 299.5788088607178 429.2050515912741C263.07163888566663 345.4635628212252 161.18146655899818 280.93875647621087 183.0419763393308 240.83301234401875C204.90248611966342 200.72726821182658 314.34602730129245 251.39450757065623 404.5092558063145 236.69747975675233C494.6724843113366 222.00045194284843 593.4239959263043 118.90194670203516 615.8254731634369 170.28727883727998C638.2269504005694 221.6726109725248 565.692405074522 384.9085574219747 512.0363465445511 483.3470740059274 "></path>
        <path d="M594.242861760179 193.2585631605832C614.4041912735984 239.50536208230358 549.1231004801557 386.41771388680843 500.8326478031819 475.012378812366C452.54219512620807 563.6070437379235 402.28447722642386 628.6645840060064 362.44868891070496 618.5129548032589C322.6129005949861 608.3613256005116 342.477316865278 501.65189853222205 309.62086388773196 426.28455863917793C276.7644109101859 350.9172187461339 185.06325581618432 292.84489303562106 204.73771461848366 256.7497233166481C224.412173420783 220.6545535976752 322.91136048424914 266.2550690206218 404.058266138769 253.02774398810834C485.20517179328886 239.80041895559486 574.0815322467599 147.0117642388629 594.242861760179 193.2585631605832C614.4041912735984 239.50536208230358 549.1231004801557 386.41771388680843 500.8326478031819 475.012378812366 "></path>
        <path d="M572.6603266508666 216.22981696630836C590.5815084405726 257.3380826745042 532.5538721797348 387.92683983406414 489.629025355758 466.6776531012264C446.7041785317813 545.4284663683886 402.0306515097509 603.2573910511289 366.62106189577855 594.2337206486868C331.21147228180627 585.2100502462447 348.86873118873234 490.3572261855428 319.6629952086914 423.3640351695037C290.4572592286505 356.3708441534646 208.94512136731572 304.7509990774531 226.43352919158184 272.6664037716994C243.9219370158479 240.58180846594564 331.47676996115115 281.11559995300934 403.6073527651688 269.3579777018862C475.73793556918645 257.6003554507631 554.7391448611606 175.1215512581125 572.6603266508666 216.22981696630836C590.5815084405726 257.3380826745042 532.5538721797348 387.92683983406414 489.629025355758 466.6776531012264 "></path>
        <path d="M551.0778068003433 239.20108603082252C566.7588408663361 275.1708185254939 515.9846591381029 389.4359810401088 478.4254181671232 458.3429426488758C440.86617719614355 527.2499042576428 401.776841051867 577.8502133550405 370.7934501396412 569.9545017529038C339.8100592274154 562.0587901507668 355.26016077097574 479.0625690976527 329.70514178843996 420.44352695861846C304.1501228059041 361.8244848195842 232.82700217723624 316.6571203780742 248.12935902346908 288.58309948553966C263.4317158697019 260.5090785930052 340.0421946968422 295.9761461441859 403.15645465035766 285.6882266744532C466.2707146038731 275.40030720472043 535.3967727343505 203.23135353615118 551.0778068003433 239.20108603082252C566.7588408663361 275.1708185254939 515.9846591381029 389.4359810401088 478.4254181671232 458.3429426488758 "></path>
        <path d="M529.4952411734528 262.1723703541258C542.9361275157323 293.0035696352727 499.4154003201038 390.94513750494264 467.2217652021212 450.0082474553143C435.02813008413875 509.07135740568594 401.5229848176159 552.4430509177412 374.9657926071367 545.6752981159095C348.40860039665745 538.907545314078 361.65154457685196 467.7679272685516 339.7472425918213 417.52303400652227C317.8429406067906 367.27814074449293 256.70883721078957 328.56325693748437 269.82514307898913 304.49981045816907C282.9414489471887 280.43636397885376 348.6075736561661 310.83670759415156 402.70551075917933 302.0184909058092C456.80344786219257 293.20027421746687 516.0543548311732 231.3411710729789 529.4952411734528 262.1723703541258C542.9361275157323 293.0035696352727 499.4154003201038 390.94513750494264 467.2217652021212 450.0082474553143 "></path>
        <path d="M507.9126908053513 285.143654677429C519.1134294239175 310.83632074505147 482.8461567608938 392.4542939697764 456.0181274959084 441.6735522617528C429.1900982309229 490.8928105537292 401.2691438421539 527.0358884804419 379.13815033342115 521.3960944789155C357.0071568246885 515.7563004773892 368.04294364151724 456.4732854394506 349.7893586539917 414.6025410544261C331.5357736664661 372.73179666940166 280.5906875031319 340.4693934968945 291.52094239329824 320.4165214307984C302.4511972834645 300.3636493647024 357.17296787427904 325.6972690441172 402.25458212679007 318.3487551371652C447.3361963793011 311.0002412302133 496.71195218678497 259.45098860980664 507.9126908053513 285.143654677429C519.1134294239175 310.83632074505147 482.8461567608938 392.4542939697764 456.0181274959084 441.6735522617528 "></path>
        <path d="M486.3301556960388 308.11492374194324C495.2907465908918 328.6690565960412 466.27692846047285 393.96343517582113 444.8145050484845 433.33884180940225C423.3520816364961 472.7142484429834 401.0153181254809 501.62871078435353 383.31052331849475 497.11687558313247C365.6057285115086 492.6050403819114 374.43435796497164 445.17862835156046 359.8314899749512 411.6820328435409C345.2286219849307 378.1854373355213 304.47255305426336 352.3755147975156 313.21675696639636 336.33321714463875C321.9609608785294 320.2909194917619 365.73837735118104 340.55781523529373 401.80366875318987 334.6790041097322C437.8689601551987 328.8001929841706 477.3695648011858 287.5607908878453 486.3301556960388 308.11492374194324C495.2907465908918 328.6690565960412 466.27692846047285 393.96343517582113 444.8145050484845 433.33884180940225 "></path>
        <path d="M464.7476053279373 331.0861928064574C471.4680484990771 346.5017924470309 449.70768490126284 395.47257638186585 433.61086734227155 425.0041313570517C417.5140497832803 454.5356863322375 400.7614771500189 476.2215330882651 387.4828810447793 472.8376566873493C374.20428493953966 469.4537802864335 380.8257570296369 433.88397126367033 369.8736060371216 408.76152463265566C358.92145504460626 383.639078001641 328.3544033466057 364.2816360981367 334.9125562807055 352.24991285847904C341.47070921480525 340.21818961882144 374.303771569294 355.4183614264703 401.3527401208006 351.00925308229915C428.4017086723072 346.60014473812794 458.02716215679754 315.670593165884 464.7476053279373 331.0861928064574C471.4680484990771 346.5017924470309 449.70768490126284 395.47257638186585 433.61086734227155 425.0041313570517 "></path>
        <path d="M443.1650854774139 354.0574618709716C447.6453809248404 364.3345282980206 433.13847185963095 396.98171758791057 422.4072601536368 416.66942090470116C411.6760484476426 436.3571242214917 400.507666692135 450.81435539217676 391.6552692886419 448.55843779156623C382.8028718851488 446.3025201909557 387.2171866118803 422.58931417578026 379.9157526168701 405.84101642177046C372.61431862185987 389.09271866776066 352.2362841565262 376.1877573987578 356.6083861125927 368.1666085723194C360.98048806865927 360.14545974588094 382.86919630498505 370.2789076176469 400.90184200598947 367.3395020548661C418.9344877069939 364.4000964920853 438.6847900299874 343.78039544392266 443.1650854774139 354.0574618709716C447.6453809248404 364.3345282980206 433.13847185963095 396.98171758791057 422.4072601536368 416.66942090470116 "></path>
        <path d="M421.58253510931246 377.0287309354858C423.8226828330257 382.1672641490103 416.56922830042095 398.4908587939553 411.20362244742387 408.3347104523506C405.8380165944268 418.1785621107458 400.25382571667296 425.4071776960884 395.8276270149264 424.2792188957831C391.4014283131799 423.1512600954778 393.60858567654566 411.29465708789013 389.95786867904053 402.9205082108852C386.3071516815354 394.54635933388033 376.11813444886855 388.0938786993789 378.3041854269018 384.08330428615966C380.4902364049351 380.0727298729405 391.434590523098 385.1394538088234 400.4509133736002 383.66975102743305C409.4672362241024 382.2000482460427 419.3423873855992 371.89019772196133 421.58253510931246 377.0287309354858C423.8226828330257 382.1672641490103 416.56922830042095 398.4908587939553 411.20362244742387 408.3347104523506 "></path>
    </g>
</svg>