<svg xmlns="http://www.w3.org/2000/svg" version="1.1" xmlns:xlink="http://www.w3.org/1999/xlink"
     xmlns:svgjs="http://svgjs.dev/svgjs" viewBox="0 0 640 800">
    <defs>
        <linearGradient x1="50%" y1="0%" x2="50%" y2="100%" id="ccchaos-grad">
            <stop stop-color="hsl(162, 100%, 58%)" stop-opacity="1" offset="0%"></stop>
            <stop stop-color="hsl(270, 73%, 53%)" stop-opacity="1" offset="100%"></stop>
        </linearGradient>
    </defs>
    <g stroke-width="2" stroke="url(#ccchaos-grad)" fill="none" stroke-linecap="round">
        <path d="M308.22 126.95C317.82 124.09 327.52 120.54 337.33 116.81 347.17 112.89 357.14 109.9 367.23 108.27 377.37 107.87 387.67 109.41 398.12 112.88 408.65 117.79 419.35 124.28 430.18 131.95 441.09 140.11 452.13 148.65 463.23 157.16 474.34 165.02 485.43 172.28 496.4 178.78 507.22 184.13 517.76 188.7 527.86 192.64 537.56 195.67 546.61 198.44 554.81 201.19 562.33 203.65 568.79 206.52 574.03 209.98 579.91 215.96 583.66 232.87 581.8 243.78 579.73 251.79 576.88 260.46 573.48 269.65 570.38 279.18 567.32 289.07 564.61 299.18 563.03 309.49 562.33 319.9 562.72 330.3 564.79 340.79 568.14 351.19 572.74 361.41 578.87 371.67 585.93 381.71 593.58 391.45 601.85 401.2 609.72 410.4 616.78 419.04 623.24 427.67 628.15 435.75 631.29 443.3 633.02 450.87 632.68 457.97 630.3 464.67 626.39 471.52 620.63 478.15 613.25 484.67 604.79 491.61 595.18 498.72 584.74 506.2 573.94 514.43 562.8 523.32 551.58 533.03 540.63 543.69 529.93 555.28 519.64 567.76 509.97 580.96 500.81 594.7 492.18 608.65 484.24 622.36 476.75 635.42 469.65 647.24 463.12 657.43 456.81 665.42 450.62 670.71 444.8 673.54 438.93 673.45 432.92 670.61 427.1 666.1 421 659.97 414.59 653.09 408.22 647.1 401.45 642.35 394.27 639.78 387.07 640.58 379.42 644.62 371.32 651.92 363.19 662.35 354.62 674.73 345.62 687.85 336.61 700.6 327.18 711.25 317.37 718.42 307.56 721.6 297.62 719.93 287.61 713.73 277.63 704.13 267.6 691.84 257.57 678.24 247.6 664.9 237.66 652.78 227.81 642.86 218.05 636.04 208.41 632.28 198.97 631.41 189.65 633.48 180.56 637.33 171.77 642.07 163.15 647.52 154.87 652.16 146.99 655.31 139.33 657.04 132.1 656.36 125.35 653.17 118.83 647.9 112.8 640.28 107.29 630.72 101.96 619.69 97.13 607.44 92.79 594.46 88.54 581.03 84.71 567.53 81.3 554.26 77.83 541.29 74.68 528.86 71.82 517.05 68.77 505.78 65.91 495.13 63.23 485 60.25 475.35 57.39 466.05 54.67 457 51.62 448.23 48.71 439.52 45.97 430.77 42.98 422.14 40.24 413.34 37.81 404.33 35.3 395.35 33.22 386.09 31.66 376.57 30.22 367.04 29.46 357.48 29.41 347.94 29.64 338.44 30.63 329.02 32.38 319.77 34.47 310.63 37.31 301.75 40.85 293.25 44.68 284.95 49.15 277.13 54.18 269.88 59.37 262.91 65.03 256.58 71.08 250.94 77.13 245.54 83.46 240.78 90.01 236.63 96.41 232.49 102.96 228.74 109.62 225.23 116.04 221.31 122.54 217.3 129.11 212.99 135.41 207.82 141.8 202.06 148.29 195.63 154.54 188.18 160.92 180.09 167.46 171.47 173.82 162.31 180.39 153.12 187.18 144.26 193.85 135.85 200.79 128.49 208 122.55 215.15 117.94 222.6 115.12 230.36 114.17 238.07 114.47 246.11 116.21 254.46 119.01 262.79 121.85 271.43 124.75 280.4 127.2 289.35 128.28 298.62 128.22 308.21 126.95"
              stroke-dasharray="1 10" transform="rotate(0, 320, 400)" opacity="0.47"></path>
        <path d="M313.33 138.33C322.67 135.52 332.15 132.05 341.74 128.38 351.36 124.47 361.12 121.36 371.01 119.47 380.94 118.68 391.03 119.69 401.24 122.54 411.5 126.79 421.9 132.64 432.38 139.77 442.9 147.55 453.47 155.89 464.02 164.41 474.52 172.54 484.91 180.25 495.09 187.35 505.05 193.45 514.65 198.81 523.72 203.5 532.37 207.23 540.3 210.55 547.37 213.65 556.47 217.66 567.95 227.19 570.07 233.51 570.39 238.27 569.62 243.81 567.86 250.08 565.84 256.75 563.19 264.09 560.16 272 557.52 280.23 555 288.91 552.87 297.91 551.84 307.12 551.63 316.54 552.44 326.05 554.76 335.66 558.24 345.28 562.82 354.83 568.77 364.41 575.51 373.86 582.77 383.11 590.59 392.36 598.04 401.18 604.75 409.56 610.94 417.95 615.75 425.93 618.95 433.53 620.92 441.2 621 448.59 619.21 455.78 616.02 463.19 611.08 470.57 604.58 478.06 597.04 486 588.32 494.27 578.71 503.03 568.64 512.46 558.11 522.55 547.37 533.39 536.74 544.93 526.21 557.16 515.94 569.96 506.14 583.06 496.73 596.28 487.76 609.25 479.38 621.58 471.41 632.87 463.81 642.59 456.73 650.57 449.91 656.29 443.27 659.44 436.99 660.42 430.75 658.9 424.46 655.13 418.38 650.26 412.13 644.33 405.65 638.17 399.27 633.25 392.57 629.79 385.53 628.56 378.51 630.52 371.11 635.44 363.33 643.23 355.54 653.71 347.35 665.76 338.78 678.27 330.19 690.3 321.23 700.3 311.92 707.05 302.61 710.15 293.19 708.79 283.72 703.24 274.26 694.49 264.78 683.1 255.32 670.26 245.9 657.38 236.54 645.31 227.29 634.97 218.12 627.27 209.1 622.27 200.28 619.94 191.59 620.46 183.14 622.9 174.99 626.56 167.01 631.31 159.38 635.82 152.14 639.4 145.09 642.12 138.46 642.92 132.3 641.6 126.32 638.5 120.81 633.19 115.78 625.9 110.9 617.08 106.46 606.79 102.47 595.45 98.53 583.36 94.97 570.81 91.77 558.13 88.48 545.41 85.47 532.93 82.71 520.84 79.74 509.07 76.93 497.79 74.28 486.99 71.32 476.56 68.47 466.53 65.73 456.85 62.68 447.42 59.75 438.19 56.99 429.09 53.99 420.11 51.22 411.15 48.76 402.16 46.21 393.2 44.09 384.15 42.47 375.01 40.96 365.87 40.12 356.86 39.97 348.02 40.09 339.21 40.96 330.6 42.56 322.28 44.5 314.05 47.17 306.18 50.54 298.74 54.2 291.45 58.49 284.67 63.35 278.45 68.39 272.4 73.89 266.93 79.8 262.04 85.74 257.23 91.98 252.9 98.45 248.97 104.81 244.87 111.34 240.95 117.99 237.06 124.44 232.62 130.97 227.91 137.57 222.79 143.93 216.79 150.37 210.21 156.89 203 163.18 194.94 169.58 186.39 176.11 177.54 182.45 168.4 188.97 159.45 195.68 151.06 202.25 143.29 209.06 136.7 216.12 131.58 223.08 127.77 230.33 125.69 237.85 125.33 245.33 126.06 253.11 128.06 261.19 130.94 269.24 133.75 277.61 136.52 286.3 138.81 294.97 139.76 303.98 139.62 313.32 138.33"
              stroke-dasharray="7 2" transform="rotate(4.04, 320, 400)" opacity="0.78"></path>
        <path d="M318.86 149.7C327.94 146.96 337.17 143.58 346.51 139.98 355.88 136.09 365.38 132.9 375 130.79 384.65 129.64 394.43 130.15 404.3 132.38 414.2 135.97 424.19 141.14 434.2 147.65 444.2 154.93 454.19 162.94 464.08 171.33 473.87 179.54 483.47 187.55 492.77 195.13 501.82 201.88 510.43 207.99 518.46 213.45 526.05 217.96 532.91 221.98 538.9 225.63 546.49 230.16 555.46 239.36 556.73 244.85 556.22 251.11 550.88 267.24 547.07 277.05 544.91 284.05 542.92 291.54 541.34 299.43 540.82 307.5 541.08 315.88 542.24 324.46 544.8 333.14 548.36 341.95 552.9 350.79 558.65 359.66 565.09 368.53 571.96 377.33 579.35 386.14 586.38 394.66 592.73 402.9 598.65 411.16 603.33 419.18 606.58 427.01 608.73 434.92 609.18 442.74 607.92 450.55 605.39 458.6 601.22 466.78 595.57 475.22 588.92 484.07 581.09 493.34 572.33 503.12 563.05 513.43 553.21 524.32 543.04 535.78 532.85 547.66 522.62 559.95 512.52 572.46 502.75 584.89 493.25 597.05 484.09 608.58 475.41 619.17 467.08 628.45 459.09 635.99 451.57 641.81 444.3 645.43 437.24 646.71 430.54 646.2 423.93 643.62 417.34 639.31 410.97 634.42 404.52 628.97 397.93 623.72 391.45 619.94 384.75 617.78 377.79 617.83 370.87 620.84 363.65 626.51 356.12 634.67 348.59 645.1 340.72 656.76 332.53 668.66 324.33 679.97 315.8 689.33 306.98 695.67 298.15 698.69 289.24 697.62 280.3 692.68 271.38 684.76 262.45 674.26 253.56 662.22 244.72 649.88 235.96 637.99 227.32 627.41 218.76 619.01 210.37 612.93 202.19 609.28 194.13 608.31 186.33 609.29 178.83 611.7 171.48 615.5 164.48 619.51 157.86 623.09 148.38 627.24 131.76 625.39 124.66 618.63 120.18 612.05 116.09 603.88 112.41 594.45 108.74 584.09 105.4 572.96 102.37 561.39 99.24 549.5 96.33 537.54 93.64 525.72 90.73 513.99 87.95 502.56 85.3 491.5 82.36 480.67 79.5 470.21 76.75 460.12 73.69 450.23 70.74 440.61 67.96 431.24 64.95 421.98 62.16 412.87 59.67 403.89 57.11 394.94 54.94 386.06 53.27 377.26 51.71 368.46 50.8 359.93 50.55 351.7 50.56 343.48 51.3 335.59 52.76 328.07 54.54 320.61 57.04 313.56 60.22 306.98 63.69 300.48 67.79 294.47 72.45 288.98 77.3 283.54 82.64 278.58 88.38 274.08 94.17 269.49 100.29 265.22 106.66 261.17 112.95 256.8 119.43 252.42 126.05 247.91 132.49 242.77 139.04 237.27 145.66 231.29 152.07 224.51 158.55 217.19 165.11 209.35 171.45 200.86 177.89 192.08 184.43 183.2 190.79 174.28 197.3 165.76 203.96 157.98 210.49 150.97 217.22 145.21 224.16 140.94 231.01 137.92 238.1 136.53 245.45 136.71 252.74 137.82 260.32 140.01 268.18 142.94 276 145.68 284.13 148.3 292.58 150.42 301 151.23 309.76 151.01 318.85 149.7"
              stroke-dasharray="3 8" transform="rotate(8.08, 320, 400)" opacity="0.46"></path>
        <path d="M324.45 161.08C333.28 158.4 342.23 155.12 351.28 151.6 360.36 147.77 369.55 144.51 378.83 142.22 388.13 140.75 397.52 140.79 406.96 142.43 416.4 145.34 425.87 149.81 435.31 155.64 444.71 162.33 454.02 169.89 463.17 177.98 472.17 186.12 480.92 194.26 489.29 202.15 497.4 209.42 505.01 216.17 512.02 222.35 518.6 227.66 524.45 232.44 529.45 236.79 539.11 247.06 542.37 262.64 540.16 269.15 538.46 273.79 536.42 279 534.23 284.76 532.54 290.69 531.08 297.13 530.03 304.02 529.98 311.04 530.65 318.44 532.14 326.14 534.88 333.91 538.51 341.92 542.98 350.09 548.53 358.28 554.67 366.6 561.16 375.01 568.11 383.42 574.73 391.71 580.74 399.88 586.38 408.08 590.92 416.22 594.16 424.32 596.46 432.53 597.23 440.8 596.43 449.21 594.51 457.83 591.06 466.71 586.21 475.91 580.41 485.44 573.46 495.4 565.56 505.81 557.1 516.56 548.01 527.75 538.49 539.28 528.84 550.95 519.05 562.73 509.25 574.38 499.65 585.66 490.21 596.35 481.01 606.1 472.18 614.77 463.64 621.96 455.38 627.37 447.52 631.18 439.9 632.97 432.5 632.72 425.43 631.09 418.48 627.85 411.61 623.37 404.96 618.76 398.29 614.02 391.55 609.81 384.95 607.24 378.2 606.34 371.27 607.57 364.4 611.5 357.3 617.79 349.96 626.21 342.64 636.51 335.05 647.74 327.2 659 319.34 669.61 311.22 678.35 302.84 684.3 294.47 687.23 286.05 686.42 277.63 682.06 269.24 674.93 260.86 665.31 252.55 654.09 244.29 642.37 236.12 630.78 228.1 620.12 220.16 611.21 212.39 604.25 204.85 599.43 197.42 597.05 190.24 596.59 183.38 597.67 176.65 600.31 170.24 603.51 164.22 606.72 155.56 611.22 140.42 612.9 133.92 608.92 129.79 604.42 126.01 598.36 122.59 590.94 119.14 582.54 115.98 573.15 113.1 563.07 110.07 552.47 107.24 541.54 104.6 530.48 101.72 519.31 98.95 508.23 96.3 497.36 93.35 486.57 90.48 476.07 87.7 465.88 84.63 455.82 81.68 446.05 78.88 436.57 75.86 427.17 73.07 418.02 70.56 409.09 67.98 400.19 65.79 391.49 64.08 382.98 62.48 374.47 61.49 366.34 61.15 358.61 61.07 350.87 61.68 343.54 62.98 336.64 64.6 329.75 66.92 323.3 69.9 317.31 73.17 311.33 77.05 305.79 81.5 300.69 86.15 295.53 91.28 290.74 96.82 286.26 102.45 281.57 108.41 277.05 114.64 272.59 120.84 267.7 127.23 262.68 133.78 257.41 140.2 251.5 146.73 245.19 153.35 238.42 159.79 230.96 166.3 223.06 172.88 214.78 179.27 206.08 185.75 197.29 192.32 188.61 198.71 180.1 205.22 172.19 211.87 165.15 218.39 158.96 225.07 154.07 231.94 150.65 238.71 148.4 245.69 147.64 252.91 148.3 260.06 149.73 267.47 152.06 275.14 154.99 282.77 157.63 290.7 160.09 298.91 162.02 307.11 162.69 315.61 162.39 324.44 161.08"
              stroke-dasharray="3 4" transform="rotate(12.12, 320, 400)" opacity="0.87"></path>
        <path d="M329.77 172.45C338.32 169.85 346.96 166.68 355.69 163.26 364.43 159.49 373.25 156.21 382.13 153.76 391.02 152 399.94 151.61 408.87 152.69 417.79 154.95 426.67 158.71 435.46 163.82 444.18 169.84 452.75 176.83 461.09 184.49 469.27 192.38 477.13 200.46 484.58 208.49 491.75 216.11 498.4 223.35 504.43 230.14 510.06 236.19 514.98 241.73 519.09 246.82 526.71 258.8 528.56 274.98 526.51 280.96 524.23 287.36 519.96 302.64 518.93 311.52 519.32 317.67 520.36 324.23 522.12 331.16 525.02 338.14 528.68 345.44 533.06 353.01 538.4 360.6 544.23 368.43 550.35 376.49 556.89 384.55 563.11 392.65 568.77 400.78 574.13 408.95 578.5 417.19 581.72 425.54 584.13 433.98 585.16 442.61 584.78 451.45 583.39 460.47 580.6 469.8 576.51 479.45 571.52 489.33 565.42 499.57 558.37 510.13 550.75 520.85 542.44 531.8 533.64 542.86 524.63 553.8 515.36 564.58 505.99 574.94 496.7 584.71 487.47 593.65 478.38 601.46 469.55 608.14 460.93 613.31 452.54 616.77 444.47 618.83 436.62 619.14 428.97 617.74 421.61 615.39 414.39 611.85 407.28 607.54 400.38 603.47 393.51 599.62 386.63 596.53 379.89 595.17 373.07 595.47 366.15 597.77 359.29 602.5 352.28 609.28 345.1 617.83 337.94 627.92 330.58 638.68 323.03 649.3 315.48 659.22 307.72 667.36 299.77 672.93 291.82 675.76 283.88 675.19 275.97 671.38 268.07 665 260.23 656.24 252.49 645.85 244.79 634.81 237.21 623.63 229.79 613.05 222.44 603.82 215.28 596.17 208.36 590.35 201.53 586.71 194.96 584.87 188.7 584.59 182.54 585.95 176.7 588.13 171.22 590.65 163.33 594.88 149.49 598.74 143.53 596.96 139.69 594.27 136.17 590.13 132.97 584.67 129.69 578.25 126.67 570.74 123.89 562.37 120.94 553.38 118.17 543.84 115.54 533.95 112.67 523.78 109.91 513.51 107.23 503.26 104.27 492.95 101.39 482.8 98.59 472.86 95.51 462.97 92.55 453.32 89.74 443.95 86.72 434.64 83.93 425.58 81.41 416.8 78.83 408.04 76.63 399.53 74.88 391.28 73.25 383.04 72.21 375.24 71.78 367.88 71.59 360.51 72.08 353.57 73.23 347.06 74.69 340.54 76.82 334.44 79.58 328.75 82.64 323.01 86.3 317.65 90.5 312.61 94.93 307.44 99.83 302.51 105.15 297.75 110.58 292.71 116.36 287.7 122.41 282.62 128.47 277.08 134.74 271.32 141.19 265.26 147.54 258.62 154.03 251.59 160.61 244.16 167.04 236.2 173.56 227.94 180.15 219.47 186.57 210.79 193.07 202.21 199.66 193.95 206.08 186.03 212.61 178.85 219.26 172.65 225.77 167.35 232.43 163.34 239.24 160.74 245.96 159.21 252.87 159.03 259.98 160.11 267.02 161.78 274.29 164.2 281.79 167.08 289.26 169.59 296.98 171.87 304.98 173.62 312.95 174.15 321.21 173.78 329.76 172.45"
              stroke-dasharray="5 3" transform="rotate(16.16, 320, 400)" opacity="0.45"></path>
        <path d="M334.48 183.82C342.73 181.3 351.04 178.25 359.4 174.94 367.76 171.25 376.17 167.98 384.59 165.41 393 163.41 401.41 162.63 409.76 163.19 418.09 164.81 426.32 167.86 434.41 172.23 442.41 177.53 450.21 183.85 457.72 190.96 465.06 198.45 472.04 206.29 478.58 214.27 484.85 222.03 490.59 229.59 495.71 236.83 500.49 243.49 504.58 249.72 507.93 255.52 511.99 263.07 515.8 275.99 515.72 281.88 514.84 287.41 511.29 299.4 509.36 306.19 508.37 313.36 509.5 329.86 512.19 339.15 515.2 345.5 518.87 352.22 523.14 359.3 528.26 366.38 533.79 373.8 539.55 381.55 545.68 389.31 551.51 397.22 556.82 405.28 561.9 413.37 566.09 421.64 569.26 430.11 571.74 438.66 572.98 447.44 572.96 456.48 572.05 465.64 569.86 475.09 566.46 484.81 562.24 494.63 556.95 504.7 550.74 514.93 543.95 525.15 536.45 535.39 528.41 545.5 520.09 555.31 511.44 564.7 502.6 573.47 493.74 581.52 484.84 588.59 476 594.45 467.32 599.23 458.77 602.57 450.38 604.35 442.24 605 434.28 604.2 426.49 602.07 418.95 599.36 411.55 595.88 404.27 592.02 397.18 588.7 390.16 585.85 383.17 583.94 376.31 583.75 369.43 585.17 362.51 588.42 355.65 593.81 348.71 600.94 341.66 609.52 334.64 619.34 327.49 629.58 320.21 639.55 312.94 648.8 305.51 656.35 297.96 661.55 290.41 664.29 282.9 663.94 275.48 660.63 268.06 654.96 260.73 647.05 253.54 637.5 246.37 627.19 239.34 616.52 232.5 606.15 225.71 596.78 219.13 588.64 212.8 582.01 203.52 575.72 186.52 573.1 178.87 575.2 171.65 578.62 158.95 583.33 153.43 583.1 148.19 580.58 138.9 568.19 134.72 558.76 131.83 551.52 129.07 543.57 126.45 535.11 123.58 526.28 120.8 517.15 118.1 507.86 115.13 498.43 112.22 488.98 109.4 479.62 106.32 470.24 103.36 461 100.54 451.98 97.54 442.97 94.75 434.19 92.23 425.67 89.67 417.16 87.46 408.9 85.69 400.92 84.03 392.93 82.93 385.39 82.43 378.29 82.15 371.17 82.51 364.47 83.51 358.16 84.81 351.81 86.74 345.83 89.29 340.19 92.12 334.46 95.54 329 99.49 323.76 103.67 318.34 108.32 313.05 113.39 307.81 118.59 302.24 124.15 296.61 129.99 290.84 135.87 284.62 141.99 278.14 148.29 271.37 154.54 264.1 160.93 256.52 167.43 248.64 173.83 240.41 180.32 232.03 186.88 223.62 193.3 215.2 199.81 207.06 206.39 199.4 212.83 192.23 219.36 185.89 225.99 180.59 232.51 176.2 239.14 173.06 245.91 171.24 252.59 170.36 259.43 170.7 266.43 172.11 273.38 173.96 280.52 176.42 287.86 179.21 295.17 181.57 302.7 183.65 310.47 185.21 318.22 185.61 326.22 185.15 334.47 183.83"
              stroke-dasharray="11 5" transform="rotate(20.200000000000003, 320, 400)" opacity="0.45"></path>
        <path d="M338.29 195.2C346.21 192.76 354.16 189.83 362.11 186.64 370.07 183.06 378.01 179.81 385.93 177.17 393.83 174.97 401.67 173.85 409.41 173.93 417.11 174.96 424.67 177.32 432.03 180.93 439.29 185.47 446.3 191.06 452.99 197.51 459.52 204.45 465.65 211.89 471.33 219.62 476.76 227.32 481.67 234.99 485.99 242.49 490 249.58 493.38 256.35 496.09 262.77 499.36 271.38 502.22 286.33 502.03 293.02 501.31 299.16 498.65 311.61 497.37 318.28 497.05 325.13 499.31 340.6 502.33 349.28 505.42 355.19 509.06 361.49 513.22 368.18 518.11 374.87 523.34 381.95 528.74 389.42 534.48 396.9 539.92 404.6 544.9 412.52 549.69 420.46 553.69 428.64 556.79 437.05 559.3 445.5 560.71 454.2 560.99 463.14 560.5 472.12 558.84 481.33 556.07 490.71 552.56 500.09 548.05 509.56 542.64 519.03 536.68 528.35 529.99 537.49 522.74 546.3 515.16 554.68 507.19 562.48 498.95 569.5 490.63 575.77 482.19 581.02 473.71 585.06 465.31 588.16 456.97 589.95 448.72 590.4 440.65 590.03 432.71 588.51 424.91 586.03 417.3 583.33 409.82 580.21 402.46 577.02 395.26 574.59 388.14 572.82 381.1 572.08 374.17 573 367.25 575.42 360.35 579.48 353.51 585.39 346.64 592.75 339.72 601.26 332.83 610.73 325.87 620.44 318.84 629.76 311.82 638.34 304.71 645.34 297.52 650.18 290.33 652.81 283.24 652.66 276.26 649.81 269.29 644.83 262.45 637.72 255.76 629.02 249.09 619.47 242.58 609.39 236.28 599.36 230.01 590.02 223.96 581.58 218.16 574.35 209.66 566.6 194.11 560.26 187.11 560.66 174.61 565.05 158.61 566.94 154.12 563.96 151.08 560.97 148.23 556.95 145.55 552.02 142.68 546.49 139.93 540.18 137.29 533.26 134.41 525.92 131.61 518.14 128.88 510.06 125.89 501.76 122.97 493.3 120.13 484.78 117.05 476.18 114.09 467.61 111.27 459.15 108.3 450.68 105.53 442.34 103.02 434.2 100.48 426.06 98.28 418.13 96.5 410.41 94.82 402.7 93.68 395.38 93.1 388.45 92.74 381.49 92.98 374.89 93.83 368.63 94.96 362.3 96.7 356.26 99.02 350.47 101.62 344.56 104.79 338.83 108.47 333.23 112.38 327.41 116.76 321.62 121.56 315.8 126.5 309.67 131.8 303.41 137.41 296.97 143.07 290.14 148.98 283.07 155.1 275.74 161.19 268.05 167.45 260.15 173.83 252.08 180.14 243.83 186.55 235.59 193.04 227.5 199.43 219.57 205.9 212.06 212.44 205.16 218.87 198.85 225.39 193.43 231.98 189.06 238.48 185.56 245.08 183.25 251.78 182.15 258.41 181.86 265.17 182.61 272.07 184.29 278.92 186.26 285.93 188.7 293.11 191.36 300.25 193.55 307.59 195.43 315.12 196.78 322.63 197.05 330.35 196.53 338.28 195.2"
              stroke-dasharray="4 2" transform="rotate(24.24, 320, 400)" opacity="0.53"></path>
        <path d="M340.96 206.57C348.54 204.22 356.09 201.42 363.6 198.37 371.11 194.91 378.57 191.72 385.95 189.03 393.3 186.69 400.56 185.27 407.66 184.93 414.72 185.4 421.58 187.1 428.22 189.98 434.75 193.73 441 198.54 446.9 204.25 452.65 210.53 458 217.42 462.89 224.72 467.57 232.16 471.74 239.72 475.36 247.27 478.73 254.58 481.53 261.7 483.72 268.56 486.38 278.06 488.65 294.97 488.49 302.58 488.01 309.53 486.33 323.07 485.68 329.98 485.99 336.91 489.25 352.04 492.54 360.4 495.67 366.06 499.28 372.09 503.3 378.5 507.96 384.9 512.88 391.7 517.93 398.9 523.28 406.11 528.36 413.56 533 421.23 537.5 428.92 541.31 436.85 544.3 444.98 546.82 453.13 548.35 461.49 548.88 470.01 548.75 478.52 547.56 487.16 545.37 495.84 542.51 504.43 538.72 512.97 534.08 521.34 528.91 529.46 523.03 537.25 516.56 544.55 509.75 551.37 502.51 557.51 494.94 562.8 487.23 567.39 479.33 570.98 471.33 573.45 463.33 575.17 455.32 575.77 447.34 575.29 439.47 574.27 431.68 572.44 423.98 569.96 416.43 567.56 408.98 565.04 401.64 562.7 394.44 561.26 387.31 560.59 380.27 560.97 373.33 562.9 366.44 566.2 359.59 570.92 352.8 577.21 346.02 584.68 339.24 593.04 332.49 602.11 325.71 611.25 318.92 619.92 312.14 627.85 305.32 634.31 298.48 638.8 291.63 641.33 284.92 641.35 278.36 638.94 271.81 634.59 265.4 628.27 259.18 620.4 252.96 611.63 246.94 602.21 241.12 592.64 235.33 583.48 229.75 574.93 224.43 567.3 216.61 558.37 202.32 548.65 195.89 547.28 184.27 549.47 169.14 551.81 164.79 550.22 160.41 547.1 152.08 535.85 148.04 528.01 145.14 522.18 142.31 515.82 139.55 509.03 136.55 502 133.61 494.69 130.76 487.18 127.7 479.56 124.75 471.84 121.95 464.1 119.01 456.33 116.27 448.59 113.79 440.94 111.27 433.28 109.09 425.73 107.3 418.32 105.61 410.91 104.44 403.8 103.8 396.98 103.35 390.15 103.49 383.58 104.19 377.25 105.15 370.86 106.69 364.66 108.8 358.61 111.16 352.44 114.07 346.35 117.47 340.3 121.1 334.06 125.19 327.77 129.69 321.39 134.34 314.74 139.36 307.94 144.69 300.97 150.1 293.7 155.77 286.23 161.65 278.59 167.54 270.73 173.61 262.77 179.83 254.79 185.99 246.79 192.28 238.94 198.66 231.39 204.96 224.14 211.35 217.42 217.81 211.41 224.19 206.02 230.64 201.55 237.16 198.11 243.61 195.48 250.14 193.93 256.76 193.47 263.32 193.68 269.98 194.78 276.76 196.64 283.49 198.66 290.35 201.04 297.34 203.53 304.31 205.52 311.43 207.19 318.7 208.35 325.95 208.48 333.37 207.9 340.95 206.58"
              stroke-dasharray="5 9" transform="rotate(28.28, 320, 400)" opacity="0.88"></path>
        <path d="M342.33 217.95C349.53 215.69 356.66 213.02 363.71 210.11 370.76 206.8 377.71 203.69 384.53 200.99 391.33 198.54 397.99 196.89 404.45 196.17 410.87 196.15 417.06 197.23 422.99 199.41 428.83 202.39 434.36 206.4 439.53 211.32 444.57 216.84 449.2 223.05 453.4 229.77 457.42 236.76 460.96 244.01 464 251.38 466.84 258.68 469.18 265.92 470.98 273.01 472.63 279.82 473.78 286.41 474.47 292.77 475.19 301.65 475.01 317.96 474.5 325.63 474.35 332.91 475.19 347.58 476.6 355.22 478.28 360.28 480.35 365.6 482.82 371.21 485.97 376.77 489.5 382.65 493.37 388.87 497.79 395.07 502.41 401.62 507.13 408.55 512.1 415.47 516.81 422.61 521.13 429.93 525.35 437.26 528.94 444.77 531.82 452.44 534.3 460.09 535.92 467.87 536.65 475.71 536.82 483.5 536.05 491.29 534.36 499 532.1 506.56 528.96 513.93 525.04 521 520.62 527.77 515.52 534.1 509.83 539.84 503.8 545.12 497.31 549.67 490.45 553.39 483.42 556.51 476.14 558.72 468.69 559.97 461.2 560.66 453.63 560.46 446.03 559.45 438.48 558.17 430.96 556.36 423.49 554.21 416.12 552.36 408.82 550.61 401.61 549.23 394.49 548.81 387.45 549.21 380.5 550.62 373.63 553.45 366.82 557.48 360.07 562.71 353.38 569.25 346.72 576.71 340.1 584.83 333.51 593.44 326.93 602 320.37 610.02 313.83 617.33 307.29 623.27 300.77 627.43 294.25 629.84 287.89 630.02 281.72 628.01 275.54 624.25 269.54 618.67 263.73 611.62 257.93 603.65 252.33 594.95 246.95 585.92 241.57 577.08 236.42 568.59 231.51 560.76 226.61 553.92 221.95 548.05 217.54 543.22 205.21 536.33 188.99 535.09 184.32 535.63 175.4 534.54 162.75 525.35 158.66 519.44 155.74 514.97 152.88 509.93 150.1 504.4 147.09 498.64 144.15 492.5 141.3 486.06 138.26 479.5 135.34 472.72 132.56 465.8 129.66 458.83 126.97 451.78 124.52 444.7 122.04 437.61 119.89 430.51 118.11 423.43 116.42 416.36 115.22 409.47 114.52 402.77 114 396.05 114.03 389.49 114.59 383.07 115.39 376.59 116.74 370.21 118.62 363.89 120.74 357.46 123.38 351.04 126.5 344.59 129.84 337.97 133.62 331.27 137.8 324.47 142.15 317.46 146.85 310.31 151.87 303.01 156.99 295.54 162.37 287.94 167.98 280.26 173.63 272.5 179.47 264.76 185.46 257.13 191.43 249.63 197.54 242.4 203.74 235.59 209.91 229.17 216.16 223.36 222.49 218.31 228.76 213.88 235.1 210.35 241.51 207.8 247.86 205.96 254.28 205.1 260.78 205.19 267.23 205.8 273.76 207.15 280.38 209.12 286.96 211.14 293.65 213.4 300.43 215.71 307.19 217.48 314.07 218.93 321.05 219.89 328.03 219.9 335.12 219.26 342.32 217.95"
              stroke-dasharray="10 1" transform="rotate(32.32, 320, 400)" opacity="0.08"></path>
        <path d="M342.31 229.32C349.11 227.17 355.8 224.63 362.38 221.88 368.94 218.72 375.37 215.71 381.64 213.05 390.92 209.62 408.37 207.48 416.42 209.26 421.61 211.5 426.48 214.71 430.99 218.81 435.4 223.52 439.41 228.95 443.01 234.97 446.48 241.34 449.5 248.09 452.08 255.08 454.51 262.13 456.5 269.25 458.03 276.35 459.47 283.3 460.5 290.12 461.14 296.79 461.78 303.2 462.1 309.43 462.16 315.49 462.37 324.11 462.73 340.49 463.27 348.45 464.64 356.22 469.5 372.13 473.16 380.45 476.29 386.02 479.73 391.83 483.44 397.89 487.61 403.94 491.94 410.27 496.32 416.89 500.93 423.51 505.29 430.26 509.29 437.13 513.21 444 516.59 450.97 519.34 458 521.76 465 523.43 472.02 524.31 478.99 524.73 485.88 524.31 492.66 523.07 499.24 521.33 505.64 518.8 511.75 515.53 517.46 511.82 522.87 507.46 527.77 502.53 532.06 497.26 535.95 491.52 539.13 485.4 541.53 479.08 543.49 472.46 544.67 465.64 545.06 458.73 545.12 451.69 544.51 444.57 543.34 437.45 542.14 430.31 540.66 423.18 539.07 416.1 537.94 409.05 537.08 402.07 536.7 395.15 537.29 388.3 538.69 381.52 541.02 374.8 544.61 368.14 549.22 361.56 554.81 355.02 561.46 348.53 568.82 342.1 576.61 335.7 584.74 329.34 592.69 323.03 600.08 316.73 606.78 310.47 612.22 304.26 616.05 298.05 618.35 292.02 618.66 286.2 617.01 280.37 613.81 274.73 608.94 269.3 602.68 263.87 595.52 258.64 587.55 253.64 579.15 248.63 570.75 243.84 562.49 239.28 554.64 234.71 547.52 230.38 541.15 226.28 535.61 220.22 529.3 209.19 522.08 204.18 520.52 194.75 520.03 181.66 517.95 177.55 515.61 173.26 512.39 164.76 502.63 160.52 496.24 157.51 491.62 154.58 486.57 151.74 481.15 148.74 475.62 145.85 469.78 143.11 463.7 140.27 457.56 137.62 451.24 135.22 444.76 132.8 438.28 130.68 431.67 128.92 424.98 127.24 418.28 126.02 411.65 125.27 405.09 124.69 398.53 124.62 392.01 125.05 385.54 125.69 379.03 126.85 372.52 128.51 366.01 130.39 359.41 132.76 352.76 135.59 346.04 138.62 339.22 142.09 332.29 145.94 325.26 149.96 318.1 154.33 310.85 159.01 303.51 163.8 296.09 168.86 288.64 174.16 281.21 179.52 273.83 185.07 266.57 190.78 259.54 196.51 252.74 202.38 246.32 208.36 240.39 214.33 234.9 220.39 230.07 226.52 225.99 232.63 222.51 238.81 219.89 245.04 218.15 251.24 217.02 257.51 216.75 263.84 217.28 270.13 218.2 276.48 219.73 282.9 221.72 289.3 223.68 295.77 225.78 302.3 227.87 308.83 229.43 315.43 230.65 322.1 231.42 328.76 231.32 335.5 230.62 342.3 229.33"
              stroke-dasharray="7 7" transform="rotate(36.36, 320, 400)" opacity="0.83"></path>
        <path d="M340.9 240.7C347.28 238.64 353.52 236.25 359.61 233.66 365.69 230.67 371.61 227.79 377.34 225.18 388.72 220.37 399.24 218.3 408.65 219.55 417.78 223.31 425.61 230.53 431.95 240.52 437.87 252.12 442.25 265.19 445.05 278.88 447.69 292.47 449.09 305.83 449.53 318.7 450.6 330.79 451.46 342.47 452.53 353.87 455.26 364.72 458.89 375.72 463.55 387.07 466.64 392.68 469.97 398.44 473.5 404.37 477.42 410.27 481.46 416.37 485.51 422.65 489.77 428.93 493.79 435.26 497.47 441.6 501.11 447.93 504.26 454.26 506.87 460.55 511.23 473.01 512.81 485 511.51 496.02 508.51 506.33 502.73 515 494.63 521.44 485.28 526.62 474.22 529.25 462.04 529.32 449.41 528.85 436.19 526.99 422.79 524.83 409.44 524.9 396.12 527 383.04 532.14 370.12 541.51 357.41 553.99 345 568.37 338.82 575.97 332.71 583.32 326.66 590.08 320.62 596.19 314.64 601.15 308.73 604.68 299.96 607.07 283.44 601.17 275.69 593.56 265.47 580.17 256.07 564.52 247.56 548.84 238.97 535.13 231.21 523.91 224.31 515.52 217.2 510.51 210.8 507.44 205.07 505.32 198.91 504.61 193.2 503.16 187.91 500.32 181.94 497.21 176.22 492.13 170.78 485.11 164.65 477.57 158.85 468.36 153.59 457.8 150.82 452.45 148.23 446.82 145.89 440.96 143.53 435.09 141.46 429 139.72 422.71 138.07 416.43 136.84 410.11 136.05 403.76 135.41 397.41 135.25 391.02 135.55 384.6 136.75 371.68 139.87 358.47 144.74 345 150.39 331.28 157.62 317.2 166.13 303.01 175.12 288.91 185.12 275.16 195.87 262.43 206.76 250.89 218.19 241.35 229.98 234.56 241.71 229.92 253.75 228.33 265.96 229.71 278.1 232.11 290.46 235.91 302.97 240.02 309.22 241.34 315.51 242.35 321.83 242.93 328.15 242.71 334.51 241.97 340.89 240.7"
              stroke-dasharray="7 9" transform="rotate(40.400000000000006, 320, 400)" opacity="0.87"></path>
        <path d="M338.2 252.07C350.08 247.55 361.31 242.33 371.75 237.4 382.1 232.55 391.54 230.01 399.88 230.3 407.99 232.71 414.88 238.32 420.41 246.62 425.67 256.6 429.59 268.32 432.2 281 434.8 293.99 436.43 307.12 437.33 320.02 438.92 332.49 440.4 344.61 442.11 356.39 445.31 367.75 449.24 379.06 453.99 390.42 460.41 401.63 467.47 413.15 474.71 424.96 482.64 436.78 489.37 448.34 494.41 459.41 498.64 470.31 500.43 480.39 499.71 489.23 497.56 497.48 492.92 504.01 486.12 508.48 478.18 512.1 468.58 513.66 457.78 513.36 446.46 513.15 434.43 512.28 422.07 511.71 409.65 513.51 397.13 517.37 384.74 523.93 372.45 533.99 360.31 546.44 348.46 560.1 336.68 574.05 325.12 585.82 313.9 593.3 302.67 596.17 292.25 592.87 282.66 584.27 273.02 572.43 264.18 558.13 256.15 543.25 248.02 529.55 240.65 517.58 234.02 507.85 227.16 500.99 220.91 496.03 215.23 492.29 209.12 490.19 203.4 487.97 198.04 484.96 192.07 482.14 186.34 477.83 180.89 471.91 174.85 465.7 169.15 457.9 164 448.66 158.57 439.28 153.97 428.67 150.53 416.99 147.38 405.31 145.9 393.16 146.1 380.69 147 368.19 149.68 355.28 153.99 342.11 159.01 328.9 165.53 315.49 173.29 302.23 181.53 289.34 190.79 277.13 200.8 266.21 211.01 256.58 221.8 249.02 232.95 244.08 244.13 240.95 255.62 240.48 267.25 242.44 278.87 244.98 290.66 248.51 302.51 252.14 314.36 253.72 326.3 253.8 338.18 252.07"
              stroke-dasharray="6 10" transform="rotate(44.44, 320, 400)" opacity="0.70"></path>
        <path d="M334.36 263.45C345.35 259.21 355.64 254.35 365.1 249.69 374.48 244.9 382.95 242 390.36 241.5 397.62 242.73 403.74 246.81 408.66 253.42 413.43 261.68 417.07 271.8 419.63 283.13 422.31 295.07 424.24 307.48 425.62 319.93 427.7 332.25 429.74 344.38 432 356.18 435.56 367.74 439.71 379.1 444.48 390.29 450.63 401.38 457.24 412.46 463.9 423.47 471.15 434.47 477.31 444.86 481.97 454.45 486.02 463.88 487.95 472.25 487.7 479.26 486.27 485.83 482.62 490.77 477.02 493.93 470.4 496.67 462.18 497.86 452.76 497.82 442.8 498.35 432.03 498.77 420.81 499.88 409.45 503.31 397.87 508.68 386.31 516.33 374.79 526.77 363.36 538.94 352.16 551.77 341 564.53 330.06 575.15 319.44 581.93 308.82 584.73 298.98 582.12 289.93 574.79 280.82 564.46 272.45 551.6 264.83 537.75 257.08 524.43 250 512.16 243.58 501.54 236.91 493.21 230.76 486.57 225.11 481.23 219.04 477.55 213.31 474.17 207.91 470.52 201.96 467.37 196.25 463.22 190.83 457.83 184.91 452.38 179.35 445.54 174.35 437.32 169.12 429.02 164.68 419.45 161.33 408.68 158.25 397.9 156.71 386.51 156.72 374.69 157.34 362.89 159.59 350.68 163.34 338.28 167.75 326.02 173.55 313.75 180.54 301.87 188 290.57 196.46 280.16 205.66 271.21 215.11 263.52 225.15 257.84 235.58 254.55 246.08 252.71 256.9 253.08 267.86 255.4 278.84 257.92 289.96 261.11 301.08 264.22 312.22 265.37 323.36 265.19 334.36 263.45"
              stroke-dasharray="10 9" transform="rotate(48.48, 320, 400)" opacity="0.93"></path>
        <path d="M329.62 274.82C339.72 270.88 349.1 266.39 357.65 262.04 366.14 257.41 373.76 254.29 380.39 253.16 386.92 253.37 392.44 256.07 396.93 261.08 401.36 267.6 404.86 275.99 407.48 285.74 410.31 296.26 412.57 307.52 414.42 319.06 416.95 330.73 419.48 342.39 422.19 353.8 426.01 365.14 430.28 376.24 435 387.01 440.86 397.75 447 408.25 453.1 418.4 459.69 428.54 465.28 437.81 469.56 446.08 474.38 457.72 473.27 474.2 467.33 478.7 461.92 481.15 455.01 482.55 446.91 483.27 438.3 484.85 428.82 486.7 418.8 489.44 408.59 494.3 398.06 500.87 387.45 509.26 376.82 519.79 366.19 531.48 355.72 543.37 345.29 554.94 335.01 564.46 325.03 570.56 315.03 573.26 305.75 571.27 297.2 565.12 288.58 556.26 280.64 544.87 273.36 532.23 265.95 519.62 259.11 507.47 252.85 496.42 246.34 487.06 240.28 479.09 234.64 472.34 228.62 467.11 222.9 462.42 217.48 457.83 211.59 453.92 205.94 449.45 200.6 444.13 194.84 438.93 189.46 432.61 184.62 425.12 179.62 417.6 175.38 408.9 172.14 399.04 169.15 389.18 167.57 378.69 167.39 367.79 167.75 356.95 169.6 345.79 172.82 334.58 176.62 323.61 181.72 312.84 187.93 302.66 194.59 293.14 202.2 284.66 210.55 277.68 219.17 271.84 228.38 267.85 237.99 265.95 247.72 265.12 257.77 266.08 267.96 268.55 278.19 270.91 288.55 273.67 298.87 276.24 309.22 276.99 319.53 276.57 329.62 274.82"
              stroke-dasharray="5 10" transform="rotate(52.52, 320, 400)" opacity="0.14"></path>
        <path d="M324.29 286.19C333.5 282.55 342 278.45 349.73 274.44 357.42 270.03 364.28 266.83 370.28 265.24 376.21 264.64 381.28 266.15 385.47 269.7 389.68 274.54 393.13 281.18 395.9 289.22 398.91 298.09 401.49 307.88 403.78 318.14 406.68 328.72 409.6 339.46 412.65 350.09 416.64 360.77 420.96 371.25 425.55 381.37 431.08 391.49 436.75 401.26 442.29 410.52 448.25 419.78 453.29 428.04 457.18 435.24 461.74 445.35 461.74 459.53 457.1 463.75 452.77 466.41 447.05 468.45 440.21 470.22 432.89 472.98 424.69 476.24 415.89 480.42 406.88 486.43 397.47 493.85 387.86 502.64 378.22 512.99 368.48 524.01 358.83 534.88 349.18 545.27 339.63 553.74 330.29 559.18 320.96 561.77 312.24 560.33 304.16 555.26 296.03 547.78 288.47 537.89 281.5 526.58 274.4 514.95 267.79 503.3 261.66 492.25 255.31 482.36 249.34 473.49 243.73 465.66 237.79 459.1 232.11 453.17 226.73 447.57 220.94 442.69 215.4 437.6 210.19 432.03 204.63 426.69 199.46 420.55 194.83 413.52 190.08 406.51 186.05 398.52 182.95 389.55 180.06 380.58 178.46 371.1 178.13 361.32 178.26 351.63 179.73 341.77 182.44 332.03 185.66 322.58 190.07 313.51 195.51 305.19 201.36 297.5 208.11 290.91 215.57 285.78 223.31 281.56 231.63 279 240.36 278.19 249.23 278.08 258.42 279.38 267.75 281.8 277.16 283.88 286.68 286.17 296.15 288.19 305.65 288.56 315.09 287.93 324.29 286.19"
              stroke-dasharray="8 8" transform="rotate(56.56, 320, 400)" opacity="0.63"></path>
        <path d="M318.7 297.57C327.02 294.23 334.7 290.52 341.68 286.88 351.74 281.19 368.13 276.78 374.49 279.32 378.56 282.65 382.03 287.62 384.96 293.94 388.16 301.07 391.04 309.19 393.69 317.94 396.89 327.09 400.1 336.56 403.39 346.08 407.44 355.73 411.71 365.27 416.13 374.5 421.29 383.77 426.48 392.67 431.48 401.04 436.83 409.4 441.34 416.8 444.84 423.19 449.08 432.22 449.9 445.39 446.36 449.99 442.97 453.19 438.32 456.09 432.63 459.02 426.52 462.94 419.56 467.44 411.96 472.79 404.15 479.61 395.87 487.52 387.33 496.38 378.72 506.29 369.94 516.5 361.15 526.3 352.35 535.53 343.57 542.98 334.92 547.81 326.27 550.27 318.13 549.29 310.53 545.2 302.89 539.03 295.72 530.61 289.04 520.71 282.25 510.26 275.87 499.43 269.89 488.8 263.72 478.85 257.86 469.56 252.32 461.06 246.5 453.53 240.93 446.6 235.63 440.11 230.01 434.28 224.63 428.48 219.59 422.51 214.29 416.82 209.37 410.65 204.98 403.89 200.5 397.18 196.7 389.77 193.75 381.65 191 373.53 189.4 365.1 188.94 356.57 188.86 348.12 189.99 339.7 192.22 331.56 194.89 323.71 198.64 316.38 203.32 309.88 208.37 303.92 214.26 299.05 220.83 295.51 227.66 292.65 235.05 291.19 242.85 291.15 250.8 291.49 259.06 292.89 267.5 295.08 276 296.79 284.62 298.57 293.21 300.07 301.82 300.08 310.37 299.27 318.7 297.57"
              stroke-dasharray="7 2" transform="rotate(60.599999999999994, 320, 400)" opacity="0.71"></path>
        <path d="M313.18 308.94C320.65 305.9 327.56 302.6 333.85 299.34 342.96 294.08 358.1 288.83 364.2 289.97 368.17 292 371.68 295.47 374.77 300.18 378.12 305.59 381.23 312.01 384.16 319.13 387.56 326.67 390.95 334.66 394.37 342.84 398.4 351.19 402.55 359.56 406.73 367.73 411.5 375.96 416.21 383.91 420.68 391.4 425.43 398.9 429.43 405.56 432.55 411.38 436.43 419.71 437.8 432.84 435.17 438.2 432.57 442.08 428.86 445.91 424.21 449.93 419.21 454.81 413.39 460.27 406.94 466.43 400.29 473.7 393.14 481.75 385.67 490.36 378.11 499.63 370.32 508.91 362.43 517.61 354.53 525.7 346.56 532.19 338.62 536.43 330.69 538.74 323.16 538.17 316.05 534.95 308.91 529.98 302.15 522.96 295.79 514.51 289.33 505.37 283.2 495.62 277.41 485.76 271.46 476.2 265.77 466.97 260.36 458.26 254.72 450.21 249.31 442.66 244.16 435.55 238.77 428.97 233.63 422.58 228.81 416.23 223.81 410.15 219.18 403.86 215.06 397.3 210.88 390.79 207.33 383.87 204.56 376.55 201.95 369.22 200.37 361.84 199.81 354.56 199.56 347.35 200.38 340.36 202.18 333.8 204.33 327.48 207.45 321.78 211.41 316.93 215.69 312.48 220.74 309.05 226.41 306.77 232.32 304.93 238.78 304.23 245.62 304.64 252.62 305.17 259.93 306.47 267.42 308.32 274.98 309.6 282.67 310.86 290.35 311.85 298.05 311.56 305.71 310.6 313.18 308.94"
              stroke-dasharray="10 5" transform="rotate(64.64, 320, 400)" opacity="0.56"></path>
        <path d="M308.09 320.32C314.73 317.59 320.9 314.68 326.57 311.82 334.82 307.08 348.86 301.5 354.74 301.59 360.39 303.69 370.44 314.35 375.18 322.29 378.67 328.19 382.14 334.63 385.58 341.37 389.5 348.29 393.44 355.36 397.35 362.38 401.69 369.46 405.92 376.41 409.88 383.07 414.05 389.73 417.55 395.77 420.29 401.2 423.78 409.1 425.47 422.69 423.56 428.94 421.62 433.46 418.72 438.09 414.98 442.97 410.96 448.55 406.18 454.61 400.8 461.2 395.25 468.55 389.18 476.39 382.75 484.5 376.24 492.95 369.44 501.21 362.47 508.8 355.48 515.79 348.35 521.37 341.17 525.06 333.99 527.2 327.09 526.95 320.51 524.51 313.92 520.62 307.6 514.93 301.6 507.9 295.52 500.16 289.7 491.66 284.15 482.84 278.48 474.04 273.02 465.3 267.81 456.84 262.43 448.76 257.26 441.03 252.34 433.67 247.24 426.69 242.38 419.95 237.85 413.4 233.19 407.06 228.89 400.72 225.07 394.35 221.22 388.05 217.94 381.59 215.37 375.01 212.92 368.44 211.39 362.04 210.76 355.94 210.64 347.05 215.27 331.95 219.82 326.29 225.48 321.88 240.19 318.05 248.85 318.49 254.88 318.99 261.23 320.04 267.77 321.44 274.37 322.25 281.12 323.01 287.88 323.54 294.67 322.97 301.45 321.9 308.09 320.32"
              stroke-dasharray="2 8" transform="rotate(68.68, 320, 400)" opacity="0.25"></path>
        <path d="M303.73 331.69C315.41 326.04 325.65 320.7 334.24 317.03 342.98 313.51 350.46 313.76 356.78 317.73 363.91 323.23 370.64 331.9 376.99 342.44 384.77 353.59 392.39 365.58 399.07 377.32 406.42 389.05 411.06 399.37 412.63 408.42 413.44 418.11 410.75 427.77 405.02 438.06 398.47 450.36 389.35 464.21 378.54 478.68 367.48 493.61 355.19 506.31 342.39 513.68 329.59 516.29 317.47 511.35 306.36 500.81 295.04 487.59 284.38 472 274.66 456.29 264.47 441.22 254.97 426.92 246.71 413.79 238.11 401.25 230.97 389.03 226.17 377.29 221.81 365.55 220.74 355.34 222.64 347.28 225.42 339.6 231.08 334.66 238.91 332.85 247.39 331.27 257.62 332.07 268.76 334.36 280.13 334.4 292.05 333.69 303.73 331.69"
              stroke-dasharray="0 7" transform="rotate(72.72, 320, 400)" opacity="0.35"></path>
        <path d="M300.39 343.07C310.52 338.2 319.63 333.72 327.53 330.55 335.58 327.13 342.74 326.56 349.01 328.97 355.93 332.31 362.49 338.43 368.59 346.51 375.71 355.03 382.5 364.78 388.27 375.02 394.54 385.25 398.49 394.99 399.9 404.24 400.84 414 398.9 424.17 394.41 434.92 389.35 446.95 382.02 459.93 373.05 472.81 363.88 485.58 353.42 496.17 342.23 502.31 331.03 504.84 320.18 501.33 310.02 493.17 299.74 482.68 289.93 469.68 280.92 456.04 271.6 442.42 262.92 429.09 255.4 416.76 247.69 404.76 241.3 393.38 236.98 383.02 233 372.66 231.82 364.21 233.17 357.95 235.17 351.84 239.62 348.14 245.97 346.9 252.82 345.46 261.25 345.72 270.59 347 280.11 346.3 290.26 345.08 300.39 343.07"
              stroke-dasharray="5 11" transform="rotate(76.76, 320, 400)" opacity="0.59"></path>
        <path d="M298.27 354.44C306.91 350.35 314.9 346.72 322.06 344.15 329.33 341.11 336.02 340.2 342.04 341.59 348.53 343.43 354.69 347.59 360.34 353.64 366.68 359.95 372.58 367.73 377.46 376.52 382.7 385.31 385.98 394.33 387.18 403.37 388.12 412.77 386.75 422.76 383.28 433.17 379.44 444.26 373.66 455.79 366.38 466.77 358.94 477.34 350.24 485.94 340.68 490.93 331.11 493.31 321.63 490.99 312.6 484.95 303.5 477.03 294.72 466.74 286.61 455.51 278.31 443.96 270.6 432.3 263.94 421.34 257.18 410.51 251.6 400.34 247.78 391.34 243.63 378.82 246.94 363.72 253.64 361.01 259 359.39 265.76 358.97 273.4 359.28 281.18 357.97 289.63 356.39 298.27 354.44"
              stroke-dasharray="7 2" transform="rotate(80.80000000000001, 320, 400)" opacity="0.74"></path>
        <path d="M297.5 365.82C304.68 362.48 311.53 359.67 317.84 357.74 327.26 354.86 344.43 357.62 352.22 363.52 357.68 368.12 362.65 374.22 366.65 381.61 370.91 388.99 373.53 397 374.51 405.34 375.35 413.87 374.38 422.98 371.74 432.31 368.88 441.91 364.42 451.58 358.66 460.48 352.79 468.89 345.76 475.62 337.84 479.56 329.92 481.7 321.91 480.33 314.16 476.11 306.39 470.5 298.81 462.83 291.77 454.14 284.65 445.03 278.03 435.51 272.32 426.37 266.59 417.23 261.86 408.59 258.59 400.98 254.92 390.42 256.9 377.52 261.95 374.68 265.99 372.76 271.24 371.68 277.31 371.16 283.47 369.42 290.31 367.63 297.5 365.82"
              stroke-dasharray="9 9" transform="rotate(84.84, 320, 400)" opacity="0.30"></path>
        <path d="M298.12 377.19C309.64 371.11 320.83 368.12 330.25 369.51 340.42 370.69 349.75 377.53 355.85 389.49 362.56 401.45 363.77 416.55 359.92 431.8 355.64 447.17 346.45 461.24 333.9 468.19 321.34 470.64 308.03 463.51 296.47 451.48 284.82 437.93 274.83 422.81 269.4 410.47 264.46 398.12 265.46 390.63 270.91 387.44 276.86 382.65 286.6 379.34 298.12 377.19"
              stroke-dasharray="1 11" transform="rotate(88.88, 320, 400)" opacity="0.90"></path>
        <path d="M300.11 388.56C308.79 384.25 317.64 382.52 325.26 383.89 333.27 384.85 340.49 389.87 345.04 398.98 349.92 408.07 350.76 419.69 347.96 431.09 345 442.22 338.4 452.04 329.09 456.81 319.78 459.08 309.66 454.94 300.8 447.16 291.96 438.33 284.37 427.72 280.2 418.36 276.32 409 276.76 402.54 280.5 398.88 284.48 394.17 291.43 390.62 300.11 388.56"
              stroke-dasharray="6 9" transform="rotate(92.92, 320, 400)" opacity="0.69"></path>
        <path d="M303.33 399.94C315 393.64 328.42 396.3 334.23 408.62 340.63 420.92 335.97 438.71 323.72 445.44 311.45 447.82 296.76 436.03 291.01 423.46 285.78 410.87 291.66 402.17 303.33 399.94"
              stroke-dasharray="11 4" transform="rotate(96.96, 320, 400)" opacity="0.40"></path>
    </g>
</svg>