<svg xmlns="http://www.w3.org/2000/svg" version="1.1" xmlns:xlink="http://www.w3.org/1999/xlink"
     xmlns:svgjs="http://svgjs.dev/svgjs" viewBox="0 0 800 800">
    <defs>
        <linearGradient x1="50%" y1="0%" x2="50%" y2="100%" id="ccchaos-grad">
            <stop stop-color="hsl(162, 100%, 58%)" stop-opacity="1" offset="0%"></stop>
            <stop stop-color="hsl(270, 73%, 53%)" stop-opacity="1" offset="100%"></stop>
        </linearGradient>
    </defs>
    <g stroke-width="2" stroke="url(#ccchaos-grad)" fill="none" stroke-linecap="round">
        <path d="M44.62 37.48Q55.06 36.05 65.51 35.15 75.95 34.82 86.39 35.07 96.83 35.91 107.28 37.28 117.72 39.13 128.16 41.38 138.6 43.92 149.05 46.64 159.49 49.42 169.93 52.14 180.37 54.67 190.82 56.91 201.26 58.75 211.7 60.11 222.14 60.93 232.59 61.17 243.03 60.83 253.47 59.91 263.91 58.46 274.36 56.55 284.8 54.25 295.24 51.68 305.69 48.94 316.13 46.16 326.57 43.46 337.01 40.96 347.46 38.78 357.9 37 368.34 35.72 378.78 34.99 389.23 34.83 399.67 35.26 410.11 36.26 420.55 37.78 431 39.76 441.44 42.11 451.88 44.71 462.32 47.47 472.77 50.24 483.21 52.92 493.65 55.38 504.09 57.5 514.54 59.21 524.98 60.41 535.42 61.06 545.86 61.13 556.31 60.61 566.75 59.53 577.19 57.94 587.64 55.9 598.08 53.51 608.52 50.87 618.96 48.11 629.41 45.34 639.85 42.69 650.29 40.27 660.73 38.2 671.18 36.57 681.62 35.44 692.06 34.88 706.57 40.36 711.61 56.12 715.77 66.43 722.79 76.74 732.12 87.05 743.02 97.36 754.62 107.67 766.03 117.98 776.32 128.29 784.69 138.59 790.47 148.9 793.22 159.21 792.71 169.52 788.98 179.83 782.33 190.14 773.28 200.45 762.54 210.76 750.98 221.07 739.5 231.38 729 241.69 720.32 252 714.14 262.31 710.96 272.62 711.02 282.92 714.31 293.23 720.59 303.54 729.34 313.85 739.89 324.16 751.39 334.47 762.94 344.78 773.63 355.09 782.61 365.4 789.16 375.71 792.78 386.02 793.18 396.33 790.32 406.64 784.43 416.94 775.98 427.25 765.64 437.56 754.21 447.87 742.61 458.18 731.75 468.49 722.5 478.8 715.57 489.11 711.52 499.42 710.67 509.73 713.09 520.04 718.58 530.35 726.71 540.66 736.84 550.96 748.17 561.27 759.8 571.58 770.81 581.89 780.34 592.2 787.62 602.51 792.1 612.82 793.4 623.13 791.43 633.44 786.34 643.75 778.54 654.06 768.64 664.37 757.43 674.68 745.79 684.99 734.63 695.29 723.88 692.56 713.13 692.47 702.38 695.03 691.63 700.14 680.87 707.55 670.12 716.95 659.37 727.91 648.62 739.94 637.86 752.51 627.11 765.06 616.36 777.03 605.61 787.88 594.86 797.13 584.1 804.36 573.35 809.27 562.6 811.62 551.85 811.31 541.09 808.36 530.34 802.89 519.59 795.16 508.84 785.5 498.09 774.35 487.33 762.2 476.58 749.59 465.83 737.1 455.08 725.26 444.33 714.62 433.57 705.65 422.82 698.74 412.07 694.21 401.32 692.25 390.56 692.96 379.81 696.29 369.06 702.11 358.31 710.16 347.56 720.07 336.8 731.4 326.05 743.65 315.3 756.28 304.55 768.71 293.79 780.4 283.04 790.82 272.29 799.51 261.54 806.08 250.79 810.24 240.03 811.8 229.28 810.7 218.53 806.98 207.78 800.81 197.03 792.46 186.27 782.31 175.52 770.81 164.77 758.47 154.02 745.84 143.26 733.48 132.51 721.95 121.76 711.76 111.01 703.36 100.26 697.13 89.5 693.35 78.75 692.18 68 693.68 52.35 695.82 48.46 683.45 49.43 673.03 50.29 662.62 50.96 652.2 51.4 641.78 51.57 631.36 51.46 620.94 51.07 610.52 50.44 600.1 49.62 589.68 48.67 579.26 47.66 568.85 46.68 558.43 45.81 548.01 45.11 537.59 44.63 527.17 44.42 516.75 44.5 506.33 44.85 495.91 45.45 485.49 46.25 475.08 47.18 464.66 48.19 454.24 49.17 443.82 50.07 433.4 50.8 422.98 51.31 412.56 51.55 402.14 51.52 391.73 51.21 381.31 50.64 370.89 49.86 360.47 48.94 350.05 47.94 339.63 46.95 329.21 46.04 318.79 45.28 308.37 44.74 297.96 44.45 287.54 44.45 277.12 44.72 266.7 45.26 256.28 46.01 245.86 46.91 235.44 47.91 225.02 48.91 214.6 49.83 204.19 50.62 193.77 51.19 183.35 51.51 172.93 51.56 162.51 51.32 152.09 50.82 141.67 50.1 131.25 49.21 120.84 48.22 110.42 47.22 100 46.28 89.58 45.47 79.16 44.86 68.74 44.5 58.32 44.42 47.9 44.62 37.48"
              stroke-dasharray="4 3" transform="rotate(0, 400, 400)" opacity="0.14"></path>
        <path d="M52.02 43.92Q62.2 42.85 72.38 42.33 82.55 42.39 92.73 43.04 102.91 44.23 113.09 45.93 123.26 48.06 133.44 50.52 143.62 53.22 153.8 56.03 163.97 58.84 174.15 61.54 184.33 63.99 194.51 66.11 204.68 67.79 214.86 68.98 225.04 69.6 235.22 69.65 245.39 69.12 255.57 68.03 265.75 66.43 275.93 64.38 286.1 61.98 296.28 59.32 306.46 56.52 316.63 53.69 326.81 50.97 336.99 48.46 347.17 46.27 357.34 44.49 367.52 43.2 377.7 42.46 387.88 42.3 398.05 42.72 408.23 43.7 418.41 45.21 428.59 47.18 438.76 49.52 448.94 52.14 459.12 54.92 469.3 57.75 479.47 60.5 489.65 63.06 499.83 65.32 510.01 67.19 520.18 68.57 530.36 69.43 540.54 69.7 550.72 69.4 560.89 68.53 571.07 67.12 581.25 65.23 591.43 62.96 601.6 60.39 611.78 57.63 621.96 54.8 632.14 52.02 642.31 49.41 652.49 47.08 662.67 45.13 672.85 43.65 683.02 42.69 698.31 47.41 706.51 62.58 712.43 72.63 720.74 82.68 730.81 92.72 741.87 102.77 753.09 112.82 763.63 122.87 772.68 132.92 779.57 142.97 783.77 153.01 784.97 163.06 783.07 173.11 778.23 183.16 770.8 193.21 761.34 203.25 750.58 213.3 739.32 223.35 728.42 233.4 718.68 243.45 710.86 253.49 705.55 263.54 703.13 273.59 703.8 283.64 707.5 293.69 713.96 303.74 722.69 313.78 733.02 323.83 744.19 333.88 755.34 343.93 765.63 353.98 774.29 364.02 780.66 374.07 784.26 384.12 784.83 394.17 782.31 404.22 776.9 414.27 769 424.31 759.22 434.36 748.28 444.41 737.03 454.46 726.3 464.51 716.9 474.55 709.55 484.6 704.8 494.65 703.01 504.7 704.32 514.75 708.62 524.79 715.59 534.84 724.7 544.89 735.27 554.94 746.5 564.99 757.55 575.04 767.56 585.08 775.8 595.13 781.64 605.18 784.63 615.23 784.56 625.28 781.42 635.32 775.46 645.37 767.12 655.42 757.04 665.47 745.97 675.52 734.76 685.56 724.14 684.74 713.52 686.45 702.9 690.6 692.28 697.03 681.66 705.45 671.04 715.52 660.42 726.8 649.8 738.82 639.18 751.05 628.56 762.98 617.94 774.11 607.32 783.95 596.7 792.09 586.08 798.18 575.46 801.97 564.84 803.28 554.22 802.08 543.6 798.39 532.98 792.4 522.36 784.34 511.74 774.56 501.12 763.48 490.5 751.57 479.88 739.34 469.26 727.3 458.64 715.98 448.02 705.85 437.4 697.35 426.78 690.83 416.16 686.57 405.54 684.77 394.92 685.48 384.3 688.68 373.68 694.24 363.06 701.92 352.44 711.39 341.82 722.25 331.2 734.04 320.58 746.25 309.97 758.36 299.35 769.86 288.73 780.26 278.11 789.12 267.49 796.05 256.87 800.77 246.25 803.07 235.63 802.85 225.01 800.13 214.39 795.02 203.77 787.73 193.15 778.58 182.53 767.96 171.91 756.32 161.29 744.15 150.67 731.98 140.05 720.32 129.43 709.66 118.81 700.47 108.19 693.13 97.57 687.96 86.95 685.18 76.33 684.9 60.95 684.4 57.27 671.54 58.26 661.42 59.07 651.3 59.66 641.18 59.96 631.05 59.97 620.93 59.68 610.81 59.11 600.68 58.3 590.56 57.32 580.44 56.24 570.31 55.14 560.19 54.11 550.07 53.22 539.95 52.53 529.82 52.11 519.7 51.99 509.58 52.16 499.45 52.63 489.33 53.34 479.21 54.26 469.09 55.31 458.96 56.41 448.84 57.48 438.72 58.44 428.59 59.21 418.47 59.74 408.35 59.99 398.23 59.93 388.1 59.58 377.98 58.96 367.86 58.11 357.73 57.1 347.61 56.01 337.49 54.92 327.36 53.91 317.24 53.06 307.12 52.43 297 52.06 286.87 52 276.75 52.23 266.63 52.75 256.5 53.52 246.38 54.47 236.26 55.54 226.14 56.64 216.01 57.69 205.89 58.62 195.77 59.34 185.64 59.82 175.52 60 165.4 59.89 155.28 59.47 145.15 58.8 135.03 57.92 124.91 56.88 114.78 55.79 104.66 54.71 94.54 53.72 84.41 52.91 74.29 52.33 64.17 52.02 54.05 52.02 43.92"
              stroke-dasharray="3 8" transform="rotate(2.3488372093023258, 400, 400)" opacity="0.22"></path>
        <path d="M59.57 50.57Q69.5 49.89 79.44 49.78 89.38 50.25 99.31 51.28 109.25 52.83 119.19 54.83 129.13 57.2 139.06 59.85 149 62.67 158.94 65.54 168.87 68.34 178.81 70.97 188.75 73.32 198.68 75.29 208.62 76.8 218.56 77.79 228.5 78.22 238.43 78.07 248.37 77.35 258.31 76.08 268.24 74.33 278.18 72.15 288.12 69.65 298.05 66.91 307.99 64.06 317.93 61.2 327.87 58.46 337.8 55.94 347.74 53.75 357.68 51.97 367.61 50.69 377.55 49.94 387.49 49.77 397.42 50.17 407.36 51.14 417.3 52.62 427.24 54.57 437.17 56.91 447.11 59.53 457.05 62.33 466.98 65.2 476.92 68.02 486.86 70.68 496.79 73.07 506.73 75.08 516.67 76.65 526.61 77.7 536.54 78.2 546.48 78.12 556.42 77.46 566.35 76.26 576.29 74.56 586.23 72.43 596.16 69.95 606.1 67.24 616.04 64.39 625.98 61.53 635.91 58.77 645.85 56.22 655.79 53.98 665.72 52.16 675.66 50.81 691.67 54.78 702.72 69.37 710.09 79.17 719.32 88.97 729.76 98.78 740.64 108.58 751.19 118.39 760.65 128.19 768.33 138 773.68 147.8 776.31 157.61 776.04 167.41 772.89 177.22 767.07 187.02 759.02 196.82 749.31 206.63 738.64 216.43 727.78 226.24 717.51 236.04 708.57 245.85 701.61 255.65 697.13 265.46 695.44 275.26 696.68 285.06 700.75 294.87 707.36 304.67 716.03 314.48 726.15 324.28 736.97 334.09 747.72 343.89 757.62 353.7 765.97 363.5 772.16 373.3 775.74 383.11 776.46 392.91 774.26 402.72 769.31 412.52 761.96 422.33 752.73 432.13 742.3 441.94 731.42 451.74 720.86 461.54 711.4 471.35 703.71 481.15 698.34 490.96 695.69 500.76 695.94 510.57 699.08 520.37 704.87 530.18 712.91 539.98 722.62 549.79 733.28 559.59 744.14 569.39 754.42 579.2 763.37 589 770.34 598.81 774.84 608.61 776.54 618.42 775.33 628.22 771.27 638.03 764.68 647.83 756.02 657.63 745.91 667.44 735.09 677.24 724.61 678.24 714.12 681.58 703.63 687.14 693.14 694.68 682.66 703.9 672.17 714.42 661.68 725.82 651.19 737.63 640.71 749.38 630.22 760.58 619.73 770.79 609.24 779.58 598.76 786.6 588.27 791.56 577.78 794.26 567.29 794.6 556.81 792.56 546.32 788.21 535.83 781.75 525.34 773.43 514.86 763.58 504.37 752.62 493.88 740.97 483.39 729.13 472.91 717.57 462.42 706.75 451.93 697.12 441.44 689.08 430.96 682.93 420.47 678.95 409.98 677.28 399.49 678 389.01 681.08 378.52 686.38 368.03 693.71 357.54 702.75 347.06 713.14 336.57 724.46 326.08 736.25 315.6 748.03 305.11 759.32 294.62 769.66 284.13 778.64 273.65 785.88 263.16 791.09 252.67 794.07 242.18 794.68 231.7 792.92 221.21 788.83 210.72 782.61 200.23 774.48 189.75 764.8 179.26 753.94 168.77 742.35 158.28 730.51 147.8 718.89 137.31 707.96 126.82 698.17 116.33 689.92 105.85 683.54 95.36 679.3 84.87 677.35 69.73 674.27 66.19 660.91 67.13 651.07 67.86 641.22 68.3 631.38 68.43 621.53 68.25 611.69 67.75 601.85 66.99 592 66.01 582.16 64.89 572.31 63.7 562.47 62.53 552.62 61.47 542.78 60.59 532.94 59.95 523.09 59.61 513.25 59.58 503.4 59.87 493.56 60.46 483.72 61.3 473.87 62.34 464.03 63.49 454.18 64.69 444.34 65.83 434.49 66.84 424.65 67.64 414.81 68.18 404.96 68.42 395.12 68.35 385.27 67.95 375.43 67.28 365.58 66.36 355.74 65.28 345.9 64.1 336.05 62.92 326.21 61.81 316.36 60.86 306.52 60.14 296.68 59.69 286.83 59.56 276.99 59.74 267.14 60.23 257.3 60.99 247.45 61.97 237.61 63.1 227.77 64.28 217.92 65.45 208.08 66.52 198.23 67.4 188.39 68.03 178.54 68.38 168.7 68.41 158.86 68.12 149.01 67.53 139.17 66.69 129.32 65.66 119.48 64.5 109.64 63.31 99.79 62.17 89.95 61.16 80.1 60.35 70.26 59.81 60.41 59.57 50.57"
              stroke-dasharray="9 9" transform="rotate(4.6976744186046515, 400, 400)" opacity="0.74"></path>
        <path d="M67.31 57.48Q77.03 57.23 86.75 57.54 96.47 58.42 106.19 59.82 115.91 61.7 125.63 63.97 135.35 66.56 145.07 69.35 154.79 72.25 164.51 75.13 174.23 77.9 183.95 80.44 193.67 82.65 203.39 84.44 213.11 85.76 222.83 86.54 232.55 86.76 242.27 86.41 251.98 85.5 261.7 84.06 271.42 82.16 281.14 79.87 290.86 77.27 300.58 74.46 310.3 71.56 320.02 68.68 329.74 65.92 339.46 63.41 349.18 61.22 358.9 59.45 368.62 58.17 378.34 57.42 388.06 57.23 397.78 57.62 407.5 58.57 417.22 60.03 426.94 61.96 436.66 64.28 446.38 66.89 456.1 69.71 465.82 72.61 475.54 75.49 485.26 78.23 494.98 80.73 504.7 82.89 514.42 84.64 524.14 85.89 533.86 86.6 543.58 86.75 553.3 86.32 563.02 85.35 572.74 83.85 582.46 81.9 592.18 79.56 601.9 76.93 611.62 74.1 621.34 71.2 631.06 68.33 640.78 65.6 650.5 63.11 660.22 60.97 669.94 59.26 686.6 62.49 700.06 76.52 708.51 86.1 718.29 95.67 728.74 105.25 739.14 114.83 748.78 124.4 756.98 133.98 763.2 143.56 766.99 153.14 768.11 162.71 766.48 172.29 762.2 181.87 755.57 191.45 747.05 201.02 737.22 210.6 726.75 220.18 716.38 229.76 706.8 239.33 698.67 248.91 692.56 258.49 688.88 268.06 687.89 277.64 689.66 287.22 694.05 296.8 700.78 306.37 709.38 315.95 719.25 325.53 729.73 335.11 740.08 344.68 749.61 354.26 757.65 363.84 763.66 373.42 767.21 382.99 768.08 392.57 766.19 402.15 761.67 411.72 754.85 421.3 746.18 430.88 736.26 440.46 725.77 450.03 715.44 459.61 705.97 469.19 698.01 478.77 692.11 488.34 688.68 497.92 687.94 507.5 689.96 517.07 694.59 526.65 701.51 536.23 710.25 545.81 720.21 555.38 730.71 564.96 741.02 574.54 750.43 584.12 758.31 593.69 764.1 603.27 767.41 612.85 768.02 622.43 765.87 632 761.13 641.58 754.11 651.16 745.29 660.73 735.29 670.31 724.94 672.99 714.59 677.79 704.24 684.55 693.89 692.98 683.54 702.77 673.19 713.54 662.84 724.86 652.49 736.31 642.14 747.44 631.79 757.81 621.44 767.03 611.09 774.73 600.74 780.63 590.39 784.49 580.04 786.16 569.69 785.58 559.34 782.76 548.99 777.83 538.64 770.97 528.29 762.44 517.94 752.58 507.59 741.76 497.24 730.41 486.89 718.97 476.54 707.88 466.19 697.57 455.84 688.44 445.49 680.83 435.14 675.06 424.79 671.33 414.44 669.8 404.09 670.52 393.74 673.47 383.39 678.53 373.04 685.51 362.69 694.13 352.34 704.06 341.99 714.92 331.64 726.29 321.29 737.72 310.94 748.78 300.59 759.03 290.23 768.07 279.88 775.57 269.53 781.23 259.18 784.82 248.83 786.21 238.48 785.35 228.13 782.26 217.78 777.08 207.43 769.99 197.08 761.28 186.73 751.27 176.38 740.37 166.03 728.99 155.68 717.57 145.33 706.55 134.98 696.36 124.63 687.4 114.28 680.01 103.93 674.48 93.58 671.02 78.66 665.48 75.16 651.61 76.02 642.02 76.59 632.44 76.85 622.86 76.78 613.28 76.38 603.69 75.67 594.11 74.72 584.53 73.58 574.94 72.32 565.36 71.05 555.78 69.84 546.2 68.78 536.61 67.94 527.03 67.38 517.45 67.13 507.87 67.22 498.28 67.64 488.7 68.36 479.12 69.32 469.54 70.47 459.95 71.73 450.37 73 440.79 74.2 431.2 75.25 421.62 76.08 412.04 76.63 402.46 76.86 392.87 76.75 383.29 76.32 373.71 75.59 364.13 74.62 354.54 73.46 344.96 72.21 335.38 70.93 325.8 69.74 316.21 68.69 306.63 67.88 297.05 67.34 287.46 67.13 277.88 67.25 268.3 67.69 258.72 68.44 249.13 69.42 239.55 70.58 229.97 71.84 220.39 73.11 210.8 74.31 201.22 75.34 191.64 76.15 182.05 76.66 172.47 76.86 162.89 76.73 153.31 76.27 143.72 75.51 134.14 74.52 124.56 73.35 114.98 72.09 105.39 70.82 95.81 69.63 86.23 68.61 76.65 67.81 67.06 67.31 57.48"
              stroke-dasharray="10 8" transform="rotate(7.046511627906977, 400, 400)" opacity="0.51"></path>
        <path d="M75.3 64.7Q84.82 64.89 94.34 65.63 103.87 66.91 113.39 68.66 122.91 70.84 132.44 73.35 141.96 76.11 151.48 79.01 161.01 81.94 170.53 84.81 180.05 87.49 189.58 89.9 199.1 91.95 208.62 93.55 218.15 94.66 227.67 95.22 237.19 95.23 246.72 94.67 256.24 93.57 265.76 91.97 275.29 89.92 284.81 87.52 294.33 84.83 303.86 81.97 313.38 79.03 322.9 76.13 332.43 73.37 341.95 70.86 351.47 68.68 361 66.92 370.52 65.64 380.04 64.89 389.57 64.7 399.09 65.07 408.61 66 418.14 67.43 427.66 69.33 437.18 71.63 446.71 74.23 456.23 77.05 465.75 79.97 475.28 82.89 484.8 85.71 494.32 88.32 503.85 90.62 513.37 92.53 522.89 93.97 532.42 94.9 541.94 95.29 551.46 95.1 560.99 94.36 570.51 93.1 580.03 91.34 589.56 89.17 599.08 86.66 608.6 83.91 618.13 81.01 627.65 78.07 637.17 75.21 646.7 72.52 656.22 70.11 665.74 68.06 675.27 66.45 684.79 65.34 690.59 74.7 698.32 84.07 707.47 93.43 717.43 102.8 727.56 112.17 737.2 121.53 745.71 130.9 752.54 140.26 757.24 149.63 759.51 158.99 759.19 168.36 756.31 177.72 751.06 187.09 743.77 196.45 734.93 205.82 725.12 215.18 714.96 224.55 705.14 233.91 696.29 243.28 688.99 252.65 683.71 262.01 680.81 271.38 680.47 280.74 682.72 290.11 687.4 299.47 694.21 308.84 702.71 318.2 712.34 327.57 722.47 336.93 732.44 346.3 741.59 355.66 749.33 365.03 755.16 374.4 758.68 383.76 759.68 393.13 758.08 402.49 753.99 411.86 747.67 421.22 739.55 430.59 730.15 439.95 720.09 449.32 710.01 458.68 700.6 468.05 692.45 477.41 686.1 486.78 681.96 496.14 680.32 505.51 681.27 514.88 684.75 524.24 690.53 533.61 698.25 542.97 707.38 552.34 717.34 561.7 727.47 571.07 737.12 580.43 745.64 589.8 752.49 599.16 757.21 608.53 759.5 617.89 759.21 627.26 756.35 636.63 751.11 645.99 743.84 655.36 735.02 664.72 724.81 668.9 714.61 674.97 704.41 682.7 694.2 691.8 684 701.94 673.8 712.75 663.59 723.82 653.39 734.75 643.19 745.14 632.98 754.61 622.78 762.79 612.58 769.4 602.37 774.19 592.17 776.97 581.97 777.66 571.76 776.22 561.56 772.71 551.36 767.26 541.15 760.06 530.95 751.39 520.74 741.55 510.54 730.93 500.34 719.9 490.13 708.87 479.93 698.25 469.73 688.44 459.52 679.79 449.32 672.62 439.12 667.2 428.91 663.72 418.71 662.32 408.51 663.05 398.3 665.87 388.1 670.69 377.9 677.33 367.69 685.54 357.49 695.02 347.29 705.43 337.08 716.36 326.88 727.44 316.68 738.24 306.47 748.36 296.27 757.44 286.07 765.14 275.86 771.18 265.66 775.32 255.46 777.43 245.25 777.42 235.05 775.3 224.85 771.13 214.64 765.08 204.44 757.37 194.24 748.28 184.03 738.14 173.83 727.34 163.63 716.27 153.42 705.33 143.22 694.93 133.02 685.46 122.81 677.26 112.61 670.64 102.41 665.84 87.69 658.01 84.15 643.65 84.85 634.31 85.23 624.97 85.27 615.64 84.96 606.3 84.33 596.96 83.42 587.62 82.28 578.28 80.99 568.95 79.64 559.61 78.31 550.27 77.09 540.93 76.06 531.6 75.29 522.26 74.82 512.92 74.7 503.58 74.92 494.24 75.47 484.91 76.32 475.57 77.41 466.23 78.66 456.89 80.01 447.55 81.35 438.22 82.61 428.88 83.69 419.54 84.53 410.2 85.08 400.87 85.29 391.53 85.16 382.19 84.69 372.85 83.91 363.51 82.88 354.18 81.66 344.84 80.33 335.5 78.97 326.16 77.69 316.82 76.55 307.49 75.64 298.15 75.02 288.81 74.72 279.47 74.76 270.14 75.15 260.8 75.86 251.46 76.83 242.12 78.01 232.78 79.32 223.45 80.68 214.11 81.99 204.77 83.17 195.43 84.14 186.09 84.84 176.76 85.23 167.42 85.27 158.08 84.97 148.74 84.34 139.41 83.43 130.07 82.29 120.73 81.01 111.39 79.65 102.05 78.32 92.72 77.1 83.38 76.07 74.04 75.3 64.7"
              stroke-dasharray="8 7" transform="rotate(9.395348837209303, 400, 400)" opacity="0.88"></path>
        <path d="M83.56 72.28Q92.9 72.91 102.25 74.08 111.59 75.73 120.94 77.81 130.28 80.24 139.63 82.95 148.97 85.84 158.31 88.8 167.66 91.73 177 94.53 186.35 97.11 195.69 99.36 205.04 101.21 214.38 102.61 223.73 103.49 233.07 103.82 242.41 103.6 251.76 102.84 261.1 101.55 270.45 99.79 279.79 97.62 289.14 95.11 298.48 92.35 307.82 89.43 317.17 86.47 326.51 83.56 335.86 80.8 345.2 78.3 354.55 76.14 363.89 74.39 373.23 73.12 382.58 72.37 391.92 72.17 401.27 72.52 410.61 73.42 419.96 74.83 429.3 76.69 438.65 78.96 447.99 81.54 457.33 84.35 466.68 87.28 476.02 90.24 485.37 93.13 494.71 95.83 504.06 98.25 513.4 100.32 522.74 101.96 532.09 103.1 541.43 103.72 550.78 103.78 560.12 103.3 569.47 102.27 578.81 100.75 588.16 98.77 597.5 96.42 606.84 93.78 616.19 90.93 625.53 87.98 634.88 85.03 644.22 82.18 653.57 79.54 662.91 77.19 672.25 75.23 681.6 73.71 688.7 82.87 697.24 92.04 706.7 101.21 716.49 110.37 726.01 119.54 734.65 128.71 741.88 137.87 747.25 147.04 750.43 156.21 751.23 165.38 749.58 174.54 745.6 183.71 739.52 192.88 731.74 202.04 722.73 211.21 713.05 220.38 703.3 229.54 694.1 238.71 686.01 247.88 679.53 257.04 675.07 266.21 672.91 275.38 673.18 284.55 675.86 293.71 680.79 302.88 687.66 312.05 696.04 321.21 705.41 330.38 715.2 339.55 724.78 348.71 733.57 357.88 741.02 367.05 746.66 376.21 750.15 385.38 751.26 394.55 749.94 403.72 746.25 412.88 740.44 422.05 732.85 431.22 723.97 440.38 714.35 449.55 704.58 458.72 695.27 467.88 687 477.05 680.28 486.22 675.54 495.38 673.06 504.55 673 513.72 675.37 522.89 680.02 532.05 686.65 541.22 694.86 550.39 704.13 559.55 713.9 568.72 723.54 577.89 732.47 587.05 740.12 596.22 746.03 605.39 749.82 614.55 751.26 623.72 750.25 632.89 746.87 642.06 741.32 651.22 733.95 660.39 723.9 665.88 713.86 672.99 703.82 681.46 693.77 691.01 683.73 701.29 673.69 711.94 663.65 722.6 653.6 732.88 643.56 742.44 633.52 750.93 623.47 758.05 613.43 763.55 603.39 767.25 593.34 769.02 583.3 768.78 573.26 766.56 563.22 762.42 553.17 756.51 543.13 749.04 533.09 740.28 523.04 730.52 513 720.12 502.96 709.42 492.92 698.82 482.87 688.68 472.83 679.36 462.79 671.18 452.74 664.44 442.7 659.36 432.66 656.12 422.61 654.84 412.57 655.57 402.53 658.27 392.49 662.86 382.44 669.17 372.4 676.98 362.36 686.02 352.31 695.97 342.27 706.48 332.23 717.18 322.19 727.71 312.14 737.68 302.1 746.75 292.06 754.6 282.01 760.96 271.97 765.6 261.93 768.37 251.88 769.15 241.84 767.94 231.8 764.76 221.76 759.73 211.71 753.03 201.67 744.9 191.63 735.6 181.58 725.49 171.54 714.89 161.5 704.2 151.46 693.78 141.41 684 131.37 675.2 121.33 667.69 111.28 661.73 96.76 651.84 93.08 637.03 93.58 627.92 93.72 618.81 93.51 609.7 92.96 600.59 92.1 591.48 90.98 582.38 89.68 573.27 88.27 564.16 86.85 555.05 85.49 545.94 84.3 536.83 83.33 527.72 82.65 518.61 82.31 509.51 82.31 500.4 82.68 491.29 83.37 482.18 84.35 473.07 85.55 463.96 86.91 454.85 88.34 445.74 89.74 436.63 91.04 427.53 92.15 418.42 92.99 409.31 93.53 400.2 93.72 391.09 93.56 381.98 93.05 372.87 92.23 363.76 91.14 354.66 89.86 345.55 88.46 336.44 87.03 327.33 85.67 318.22 84.44 309.11 83.44 300 82.72 290.89 82.33 281.78 82.29 272.68 82.61 263.57 83.26 254.46 84.2 245.35 85.38 236.24 86.73 227.13 88.15 218.02 89.56 208.91 90.88 199.81 92.01 190.7 92.9 181.59 93.48 172.48 93.72 163.37 93.6 154.26 93.14 145.15 92.36 136.04 91.3 126.93 90.04 117.83 88.65 108.72 87.22 99.61 85.84 90.5 84.6 81.39 83.56 72.28"
              stroke-dasharray="8 9" transform="rotate(11.744186046511627, 400, 400)" opacity="0.37"></path>
        <path d="M92.12 80.25Q101.3 81.32 110.48 82.88 119.66 84.88 128.84 87.24 138.02 89.9 147.19 92.76 156.37 95.72 165.55 98.7 174.73 101.59 183.91 104.29 193.09 106.71 202.27 108.78 211.45 110.42 220.63 111.58 229.8 112.23 238.98 112.33 248.16 111.89 257.34 110.92 266.52 109.45 275.7 107.54 284.88 105.24 294.06 102.63 303.24 99.81 312.42 96.85 321.59 93.87 330.77 90.96 339.95 88.21 349.13 85.73 358.31 83.59 367.49 81.86 376.67 80.6 385.85 79.85 395.03 79.64 404.2 79.97 413.38 80.84 422.56 82.21 431.74 84.04 440.92 86.27 450.1 88.83 459.28 91.62 468.46 94.55 477.64 97.54 486.81 100.47 495.99 103.26 505.17 105.8 514.35 108.01 523.53 109.83 532.71 111.19 541.89 112.04 551.07 112.35 560.25 112.12 569.42 111.36 578.6 110.08 587.78 108.34 596.96 106.18 606.14 103.69 615.32 100.94 624.5 98.02 633.68 95.04 642.86 92.09 652.03 89.26 661.21 86.67 670.39 84.38 679.57 82.48 687.58 91.46 696.55 100.44 705.96 109.42 715.26 118.4 723.89 127.38 731.35 136.36 737.19 145.34 741.08 154.32 742.77 163.3 742.17 172.28 739.32 181.26 734.38 190.24 727.65 199.22 719.53 208.2 710.48 217.18 701.05 226.16 691.8 235.14 683.27 244.12 675.96 253.1 670.3 262.08 666.64 271.06 665.18 280.04 666.01 289.02 669.08 298 674.22 306.98 681.12 315.96 689.36 324.94 698.47 333.92 707.91 342.9 717.11 351.88 725.54 360.86 732.7 369.84 738.16 378.82 741.61 387.8 742.83 396.78 741.77 405.76 738.47 414.74 733.13 423.72 726.08 432.7 717.72 441.68 708.55 450.66 699.12 459.64 689.97 468.62 681.65 477.6 674.64 486.58 669.38 495.56 666.15 504.55 665.16 513.53 666.46 522.51 669.98 531.49 675.51 540.47 682.72 549.45 691.18 558.43 700.4 567.41 709.84 576.39 718.93 585.37 727.13 594.35 733.97 603.33 739.05 612.31 742.05 621.29 742.8 630.27 741.26 639.25 737.53 648.23 731.81 657.21 721.94 663.78 712.08 671.7 702.21 680.69 692.35 690.46 682.48 700.68 672.62 711 662.75 721.1 652.88 730.62 643.02 739.26 633.15 746.73 623.29 752.77 613.42 757.19 603.56 759.84 593.69 760.63 583.83 759.53 573.96 756.59 564.09 751.9 554.23 745.61 544.36 737.93 534.5 729.13 524.63 719.49 514.77 709.34 504.9 699 495.03 688.84 485.17 679.17 475.3 670.34 465.44 662.62 455.57 656.28 445.71 651.53 435.84 648.53 425.97 647.37 416.11 648.09 406.24 650.68 396.38 655.04 386.51 661.03 376.65 668.45 366.78 677.06 356.91 686.56 347.05 696.64 337.18 706.96 327.32 717.19 317.45 726.98 307.59 736 297.72 743.96 287.85 750.58 277.99 755.66 268.12 759.02 258.26 760.54 248.39 760.19 238.53 757.96 228.66 753.94 218.79 748.25 208.93 741.09 199.06 732.7 189.2 723.35 179.33 713.36 169.47 703.06 159.6 692.78 149.73 682.88 139.87 673.68 130 665.5 120.14 658.59 105.79 646.89 101.91 631.7 102.15 622.81 102.03 613.91 101.55 605.02 100.75 596.12 99.66 587.23 98.36 578.33 96.92 569.44 95.43 560.55 93.96 551.65 92.62 542.76 91.48 533.86 90.6 524.97 90.04 516.07 89.84 507.18 89.99 498.29 90.5 489.39 91.34 480.5 92.45 471.6 93.77 462.71 95.22 453.81 96.72 444.92 98.17 436.02 99.5 427.13 100.62 418.24 101.46 409.34 101.99 400.45 102.15 391.55 101.96 382.66 101.41 373.76 100.55 364.87 99.41 355.98 98.08 347.08 96.62 338.19 95.12 329.29 93.67 320.4 92.37 311.5 91.27 302.61 90.46 293.72 89.97 284.82 89.84 275.93 90.07 267.03 90.65 258.14 91.55 249.24 92.71 240.35 94.06 231.46 95.53 222.56 97.02 213.67 98.46 204.77 99.75 195.88 100.81 186.98 101.6 178.09 102.05 169.19 102.14 160.3 101.88 151.41 101.26 142.51 100.33 133.62 99.15 124.72 97.78 115.83 96.31 106.93 94.81 98.04 93.39 89.15 92.12 80.25"
              stroke-dasharray="2 10" transform="rotate(14.093023255813954, 400, 400)" opacity="0.70"></path>
        <path d="M100.98 88.64Q110 90.12 119.03 92.05 128.05 94.35 137.07 96.95 146.09 99.78 155.12 102.74 164.14 105.74 173.16 108.69 182.19 111.48 191.21 114.04 200.23 116.29 209.25 118.14 218.28 119.55 227.3 120.47 236.32 120.87 245.34 120.73 254.37 120.07 263.39 118.9 272.41 117.26 281.43 115.2 290.46 112.79 299.48 110.1 308.5 107.22 317.53 104.23 326.55 101.24 335.57 98.33 344.59 95.61 353.62 93.15 362.64 91.03 371.66 89.32 380.68 88.07 389.71 87.33 398.73 87.11 407.75 87.42 416.77 88.26 425.8 89.59 434.82 91.38 443.84 93.57 452.86 96.09 461.89 98.85 470.91 101.78 479.93 104.78 488.96 107.75 497.98 110.61 507 113.25 516.02 115.61 525.05 117.59 534.07 119.15 543.09 120.23 552.11 120.8 561.14 120.84 570.16 120.34 579.18 119.33 588.2 117.84 597.23 115.91 606.25 113.6 615.27 110.99 624.3 108.16 633.32 105.2 642.34 102.2 651.36 99.25 660.39 96.46 669.41 93.9 678.43 91.67 686.95 100.47 695.97 109.27 705 118.07 713.52 126.88 721.06 135.68 727.2 144.48 731.59 153.28 733.98 162.09 734.25 170.89 732.38 179.69 728.47 188.5 722.74 197.3 715.52 206.1 707.2 214.9 698.25 223.71 689.18 232.51 680.49 241.31 672.67 250.11 666.15 258.92 661.3 267.72 658.4 276.52 657.6 285.33 658.95 294.13 662.38 302.93 667.69 311.73 674.58 320.54 682.67 329.34 691.51 338.14 700.6 346.94 709.43 355.75 717.51 364.55 724.38 373.35 729.67 382.15 733.07 390.96 734.39 399.76 733.56 408.56 730.64 417.37 725.77 426.17 719.23 434.97 711.39 443.77 702.7 452.58 693.62 461.38 684.68 470.18 676.37 478.98 669.16 487.79 663.46 496.59 659.57 505.39 657.73 514.19 658.02 523 660.45 531.8 664.86 540.6 671.02 549.41 678.57 558.21 687.1 567.01 696.13 575.81 705.15 584.62 713.66 593.42 721.18 602.22 727.29 611.02 731.65 619.83 734.01 628.63 734.24 637.43 732.33 646.23 728.39 655.04 718.72 662.47 709.05 670.96 699.38 680.24 689.71 690.02 680.04 699.99 670.37 709.83 660.7 719.23 651.03 727.9 641.36 735.56 631.69 741.98 622.02 746.94 612.35 750.3 602.69 751.94 593.02 751.82 583.35 749.93 573.68 746.34 564.01 741.17 554.34 734.57 544.67 726.75 535 717.96 525.33 708.47 515.66 698.6 505.99 688.64 496.32 678.91 486.65 669.72 476.99 661.36 467.32 654.1 457.65 648.16 447.98 643.72 438.31 640.94 428.64 639.89 418.97 640.62 409.3 643.09 399.63 647.23 389.96 652.91 380.29 659.95 370.62 668.13 360.95 677.19 351.28 686.84 341.62 696.78 331.95 706.69 322.28 716.27 312.61 725.21 302.94 733.22 293.27 740.07 283.6 745.51 273.93 749.4 264.26 751.6 254.59 752.05 244.92 750.73 235.25 747.68 225.58 743 215.91 736.83 206.25 729.38 196.58 720.87 186.91 711.58 177.24 701.8 167.57 691.83 157.9 682 148.23 672.6 138.56 663.95 128.89 656.3 114.73 643.1 110.56 627.59 109.94 610.2 108.32 592.82 107.03 584.12 105.57 575.43 104.02 566.74 102.47 558.05 101.01 549.35 99.71 540.66 98.07 523.28 97.43 505.89 98.57 488.5 100.63 471.12 102.05 462.43 103.59 453.73 105.14 445.04 106.64 436.35 108.96 418.96 110.44 401.58 110.18 384.19 108.87 366.81 107.69 358.11 106.3 349.42 104.78 340.73 103.23 332.03 101.71 323.34 100.32 314.65 98.39 297.26 97.41 279.88 98.21 262.49 99.99 245.11 101.33 236.41 102.83 227.72 104.38 219.03 105.92 210.34 107.34 201.64 108.58 192.95 110.06 175.56 110.51 158.18 109.2 140.79 107 123.41 105.54 114.72 103.99 106.02 102.44 97.33 100.98 88.64"
              stroke-dasharray="1 2" transform="rotate(16.44186046511628, 400, 400)" opacity="0.60"></path>
        <path d="M110.12 97.45Q118.99 99.32 127.87 101.57 136.74 104.13 145.61 106.92 154.48 109.87 163.35 112.88 172.22 115.86 181.09 118.73 189.96 121.39 198.83 123.78 207.71 125.81 216.58 127.43 225.45 128.59 234.32 129.26 243.19 129.4 252.06 129.03 260.93 128.15 269.8 126.78 278.67 124.98 287.55 122.78 296.42 120.27 305.29 117.5 314.16 114.57 323.03 111.57 331.9 108.58 340.77 105.68 349.64 102.98 358.51 100.55 367.38 98.46 376.26 96.77 385.13 95.54 394 94.8 402.87 94.58 411.74 94.87 420.61 95.68 429.48 96.97 438.35 98.71 447.22 100.85 456.1 103.33 464.97 106.06 473.84 108.97 482.71 111.97 491.58 114.97 500.45 117.88 509.32 120.61 518.19 123.09 527.06 125.24 535.93 126.99 544.81 128.29 553.68 129.11 562.55 129.41 571.42 129.2 580.29 128.47 589.16 127.25 598.03 125.57 606.9 123.48 615.77 121.06 624.65 118.36 633.52 115.47 642.39 112.48 651.26 109.48 660.13 106.54 669 103.78 677.87 101.25 686.51 109.89 695.23 118.52 703.57 127.15 711.08 135.78 717.37 144.42 722.09 153.05 724.97 170.31 721.91 187.58 717.1 196.21 710.74 204.84 703.18 213.47 694.82 222.11 686.09 230.74 677.47 239.37 669.4 248 662.32 256.64 656.6 265.27 652.54 273.9 651.19 291.17 655.74 308.43 661.18 317.06 668.05 325.7 675.97 334.33 684.53 342.96 693.27 351.59 701.73 360.22 709.47 368.86 716.06 377.49 721.17 386.12 724.52 394.75 725.93 403.39 725.33 412.02 722.76 420.65 718.33 429.28 712.3 437.92 704.99 446.55 696.77 455.18 688.08 463.81 679.39 472.45 671.16 481.08 663.82 489.71 657.76 498.34 653.3 506.98 650.69 515.61 650.05 524.24 651.42 532.87 654.73 541.5 659.81 550.14 666.38 558.77 674.1 567.4 682.55 576.03 691.29 584.67 699.86 593.3 707.8 601.93 714.68 610.56 720.16 619.2 724.79 636.46 723.51 653.73 714.06 661.77 704.61 670.6 695.15 679.95 685.7 689.55 676.25 699.09 666.8 708.3 657.34 716.91 647.89 724.65 638.44 731.3 628.99 736.65 619.53 740.55 610.08 742.88 600.63 743.57 591.18 742.6 581.72 739.99 572.27 735.84 562.82 730.25 553.37 723.4 543.92 715.49 534.46 706.76 525.01 697.47 515.56 687.9 506.11 678.33 496.65 669.05 487.2 660.33 477.75 652.44 468.3 645.62 458.84 640.06 449.39 635.93 439.94 633.36 430.49 632.42 421.03 633.14 411.58 635.5 402.13 639.43 392.68 644.81 383.23 651.48 373.77 659.24 364.32 667.86 354.87 677.08 345.42 686.63 335.96 696.22 326.51 705.57 317.06 714.38 307.61 722.41 298.15 729.41 288.7 735.18 279.25 739.53 269.8 742.35 260.34 743.54 250.89 743.07 241.44 740.95 231.99 737.25 222.54 732.08 213.08 725.6 203.63 717.99 194.18 709.48 184.73 700.33 175.27 690.81 165.82 681.21 156.37 671.81 146.92 662.9 137.46 654.73 128.01 647.56 118.56 641.6 118.8 624.59 117.94 607.59 115.56 590.58 112.6 573.58 109.49 556.57 106.79 539.57 105.41 522.57 105.1 505.56 106.55 488.56 108.88 471.55 112.01 454.55 115.14 437.54 117.45 420.54 118.9 403.53 118.57 386.53 117.18 369.53 114.47 352.52 111.35 335.52 108.41 318.51 106.03 301.51 105.19 284.5 105.44 267.5 107.37 250.49 110.05 233.49 113.22 216.48 116.2 199.48 118.1 182.48 119.01 165.47 118.13 148.47 116.26 131.46 113.3 114.46 110.12 97.45"
              stroke-dasharray="0 1" transform="rotate(18.790697674418606, 400, 400)" opacity="0.21"></path>
        <path d="M119.51 106.7Q136.95 111.43 154.39 117.12 171.83 123.13 189.27 128.79 206.71 133.47 224.15 136.63 241.59 137.92 259.03 137.21 276.47 134.56 293.91 130.28 311.34 124.84 328.78 118.87 346.22 113.01 363.66 107.94 381.1 104.23 398.54 102.28 415.98 102.32 433.42 104.34 450.86 108.12 468.3 113.23 485.74 119.1 503.18 125.07 520.62 130.47 538.05 134.7 555.49 137.27 572.93 137.91 590.37 136.54 607.81 133.31 625.25 128.59 642.69 122.9 660.13 116.89 677.57 111.22 694.06 128.16 707.77 145.09 715.98 162.02 717.07 178.96 710.81 195.89 698.46 212.82 682.44 229.76 665.95 246.69 652.23 263.62 644.01 280.56 642.92 297.49 649.16 314.43 661.52 331.36 677.53 348.29 694.02 365.23 707.75 382.16 715.97 399.09 717.08 416.03 710.84 432.96 698.49 449.89 682.49 466.83 665.99 483.76 652.26 500.69 644.02 517.63 642.91 534.56 649.14 551.49 661.48 568.43 677.48 585.36 693.99 602.29 707.72 619.23 715.96 636.16 717.08 653.09 698.65 670.46 680.22 688.9 661.8 706.34 643.37 720.83 624.94 730.73 606.51 734.94 588.08 732.99 569.65 725.09 551.22 712.13 532.79 695.57 514.36 677.26 495.93 659.25 477.5 643.58 459.08 631.99 440.65 625.78 422.22 625.66 403.79 631.64 385.36 643.04 366.93 658.58 348.5 676.53 330.07 694.87 311.64 711.54 293.21 724.67 274.79 732.78 256.36 734.98 237.93 731.01 219.5 721.31 201.07 706.98 182.64 689.62 164.21 671.18 145.78 653.73 127.35 639.23 127.13 622.59 125.5 605.94 122.77 589.3 119.5 572.66 116.32 556.02 113.87 539.38 112.64 522.74 112.86 506.1 114.49 489.45 117.22 472.81 120.49 456.17 123.66 439.53 126.11 422.89 127.35 406.25 127.13 389.61 125.5 372.96 122.78 356.32 119.51 339.68 116.33 323.04 113.88 306.4 112.64 289.76 112.86 273.12 114.49 256.47 117.21 239.83 120.48 223.19 123.66 206.55 126.11 189.91 127.35 173.27 127.14 156.63 125.51 139.98 122.79 123.34 119.51 106.7"
              stroke-dasharray="6 4" transform="rotate(21.13953488372093, 400, 400)" opacity="0.15"></path>
        <path d="M129.1 116.37Q146.23 121.6 163.35 127.51 180.48 133.47 197.61 138.85 214.74 143.08 231.87 145.71 248.99 146.46 266.12 145.26 283.25 142.23 300.38 137.69 317.51 132.13 334.63 126.12 351.76 120.32 368.89 115.33 386.02 111.68 403.14 109.76 420.27 109.77 437.4 111.71 454.53 115.38 471.66 120.38 488.78 126.19 505.91 132.19 523.04 137.75 540.17 142.27 557.3 145.28 574.42 146.46 591.55 145.69 608.68 143.04 625.81 138.79 642.94 133.41 660.06 127.44 677.19 121.54 692.22 138.15 703.47 154.76 708.84 171.36 707.31 187.97 699.18 204.58 685.96 221.18 670.13 237.79 654.66 254.4 642.42 271 635.71 287.61 635.79 304.22 642.64 320.82 654.98 337.43 670.5 354.04 686.3 370.64 699.43 387.25 707.42 403.86 708.79 420.46 703.28 437.07 691.91 453.68 676.82 470.28 660.83 486.89 646.93 503.5 637.71 520.1 634.91 536.71 639.04 553.32 649.33 569.92 663.87 586.53 679.92 603.14 694.49 619.74 704.85 636.35 709.07 652.96 691.16 670.37 673.25 687.96 655.33 703.85 637.42 716.37 619.51 724.19 601.6 726.48 583.68 723 565.77 714.12 547.86 700.77 529.95 684.37 512.03 666.67 494.12 649.53 476.21 634.76 458.29 623.95 440.38 618.22 422.47 618.19 404.56 623.85 386.64 634.62 368.73 649.35 350.82 666.47 332.91 684.18 314.99 700.6 297.08 713.99 279.17 722.93 261.25 726.48 243.34 724.25 225.43 716.49 207.52 704.01 189.6 688.14 171.69 670.57 153.78 653.14 135.87 637.71 134.97 621.42 132.77 605.13 129.68 588.84 126.27 572.54 123.18 556.25 121 539.96 120.12 523.67 120.72 507.38 122.67 491.08 125.63 474.79 129.02 458.5 132.22 442.21 134.64 425.92 135.81 409.63 135.52 393.33 133.82 377.04 131.03 360.75 127.68 344.46 124.38 328.17 121.76 311.88 120.31 295.58 120.29 279.29 121.72 263 124.31 246.71 127.6 230.42 130.96 214.12 133.77 197.83 135.49 181.54 135.82 165.25 134.68 148.96 132.29 132.67 129.1 116.37"
              stroke-dasharray="5 0" transform="rotate(23.488372093023255, 400, 400)" opacity="0.38"></path>
        <path d="M138.81 126.45Q155.61 132.05 172.41 138.05 189.21 143.85 206.01 148.86 222.81 152.58 239.61 154.65 256.41 154.86 273.21 153.18 290.01 149.79 306.81 145.02 323.61 139.35 340.42 133.34 357.22 127.6 374.02 122.7 390.82 119.12 407.62 117.23 424.42 117.21 441.22 119.07 458.02 122.62 474.82 127.5 491.62 133.23 508.42 139.24 525.22 144.92 542.02 149.71 558.82 153.13 575.62 154.84 592.42 154.67 609.22 152.64 626.02 148.94 642.82 143.95 659.62 138.17 676.42 132.17 689.5 148.44 698.08 164.72 700.65 181 696.75 197.28 687.08 213.56 673.34 229.84 657.95 246.12 643.62 262.4 632.89 278.68 627.64 294.96 628.81 311.24 636.17 327.52 648.45 343.8 663.46 360.08 678.57 376.36 691.11 392.64 698.87 408.92 700.48 425.2 695.65 441.48 685.24 457.76 671.09 474.04 655.68 490.32 641.74 506.6 631.73 522.88 627.4 539.16 629.53 555.44 637.73 571.72 650.57 588 665.77 604.28 680.66 620.56 692.61 636.84 699.52 653.12 682.16 670.16 664.8 686.59 647.44 700.76 630.08 711.26 612.72 717.04 595.36 717.53 578.01 712.67 560.65 702.95 543.29 689.34 525.93 673.2 508.57 656.14 491.21 639.87 473.85 626 456.5 615.93 439.14 610.66 421.78 610.71 404.42 616.08 387.06 626.24 369.7 640.16 352.34 656.47 334.98 673.52 317.63 689.63 300.27 703.17 282.91 712.81 265.55 717.57 248.19 716.98 230.83 711.1 213.47 700.52 196.12 686.29 178.76 669.84 161.4 652.8 144.04 636.88 142.48 620.93 139.77 604.98 136.4 589.03 132.95 573.07 130.05 557.12 128.19 541.17 127.71 525.22 128.69 509.27 130.96 493.32 134.11 477.37 137.6 461.42 140.81 445.47 143.16 429.52 144.26 413.56 143.89 397.61 142.14 381.66 139.3 365.71 135.87 349.76 132.47 333.81 129.69 317.86 128.03 301.91 127.76 285.96 128.95 270.01 131.38 254.05 134.63 238.1 138.11 222.15 141.22 206.2 143.41 190.25 144.3 174.3 143.72 158.35 141.77 142.4 138.81 126.45"
              stroke-dasharray="10 0" transform="rotate(25.837209302325583, 400, 400)" opacity="0.47"></path>
        <path d="M148.57 136.89Q165.02 142.73 181.47 148.7 197.92 154.22 214.37 158.78 230.82 161.96 247.27 163.44 263.72 163.1 280.17 160.97 296.62 157.24 313.07 152.27 329.52 146.52 345.97 140.53 362.42 134.87 378.87 130.06 395.32 126.57 411.77 124.71 428.22 124.66 444.67 126.43 461.12 129.85 477.57 134.6 494.02 140.23 510.47 146.21 526.92 151.99 543.37 157.01 559.82 160.81 576.27 163.04 592.72 163.47 609.17 162.07 625.62 158.98 642.07 154.48 658.52 148.99 674.97 143.04 685.72 158.99 691.54 174.93 691.45 190.88 685.49 206.83 674.62 222.78 660.67 238.73 645.94 254.67 632.88 270.62 623.66 286.57 619.8 302.52 621.95 318.47 629.75 334.41 641.9 350.36 656.4 366.31 670.83 382.26 682.79 398.21 690.31 414.15 692.14 430.1 687.96 446.05 678.48 462 665.27 477.95 650.52 493.9 636.68 509.84 626.04 525.79 620.38 541.74 620.62 557.69 626.74 573.64 637.71 589.58 651.72 605.53 666.43 621.48 679.42 637.43 688.51 653.38 671.74 669.67 654.97 684.68 638.2 697 621.43 705.46 604.66 709.28 587.89 708.09 571.12 702.01 554.34 691.61 537.57 677.86 520.8 662.06 504.03 645.69 487.26 630.29 470.49 617.3 453.72 607.94 436.94 603.1 420.17 603.23 403.4 608.32 386.63 617.88 369.86 631.02 353.09 646.51 336.32 662.89 319.55 678.62 302.77 692.23 286 702.43 269.23 708.27 252.46 709.2 235.69 705.14 218.92 696.45 202.15 683.97 185.38 668.86 168.6 652.54 151.83 636.55 149.64 620.93 146.51 605.32 142.96 589.7 139.59 574.09 136.94 558.47 135.47 542.86 135.41 527.24 136.78 511.63 139.34 496.02 142.68 480.4 146.23 464.79 149.42 449.17 151.7 433.56 152.71 417.94 152.27 402.33 150.45 386.72 147.57 371.1 144.09 355.49 140.6 339.87 137.67 324.26 135.79 308.64 135.27 293.03 136.2 277.42 138.42 261.8 141.57 246.19 145.12 230.57 148.49 214.96 151.1 199.34 152.54 183.73 152.56 168.11 151.16 152.5 148.57 136.89"
              stroke-dasharray="10 10" transform="rotate(28.186046511627907, 400, 400)" opacity="0.50"></path>
        <path d="M158.28 147.64Q174.36 153.59 190.43 159.4 206.5 164.55 222.57 168.59 238.64 171.17 254.71 172.06 270.78 171.18 286.86 168.61 302.93 164.57 319 159.43 335.07 153.62 351.14 147.68 367.21 142.11 383.28 137.42 399.36 134.01 415.43 132.19 431.5 132.11 447.57 133.79 463.64 137.07 479.71 141.67 495.79 147.18 511.86 153.12 527.93 158.95 544 164.18 560.07 168.32 576.14 171.03 592.21 172.06 608.29 171.32 624.36 168.87 640.43 164.94 656.5 159.86 672.57 154.1 680.75 169.7 683.82 185.31 681.3 200.92 673.6 216.52 661.9 232.13 648.04 247.74 634.16 263.35 622.45 278.95 614.72 294.56 612.17 310.17 615.21 325.78 623.36 341.38 635.35 356.99 649.31 372.6 663.07 388.21 674.47 403.81 681.75 419.42 683.77 435.03 680.21 450.64 671.63 466.24 659.36 481.85 645.32 497.46 631.7 513.07 620.62 528.67 613.81 544.28 612.32 559.89 616.4 575.5 625.4 591.1 637.93 606.71 652.02 622.32 665.49 637.93 676.23 653.53 660.07 668.75 643.91 682.13 627.76 692.51 611.6 698.96 595.44 700.91 579.29 698.2 563.13 691.06 546.97 680.12 530.82 666.35 514.66 650.96 498.51 635.31 482.35 620.77 466.19 608.64 450.04 599.98 433.88 595.56 417.72 595.76 401.57 600.56 385.41 609.55 369.25 621.93 353.1 636.61 336.94 652.29 320.78 667.6 304.63 681.17 288.47 691.82 272.32 698.6 256.16 700.92 240 698.58 223.85 691.77 207.69 681.1 191.53 667.51 175.38 652.2 159.22 636.52 156.47 621.24 153.02 605.97 149.42 590.69 146.21 575.41 143.91 560.13 142.87 544.86 143.25 529.58 144.99 514.3 147.82 499.02 151.31 483.75 154.9 468.47 158.04 453.19 160.24 437.91 161.15 422.64 160.63 407.36 158.77 392.08 155.85 376.81 152.33 361.53 148.76 346.25 145.69 330.97 143.6 315.7 142.83 300.42 143.48 285.14 145.46 269.86 148.46 254.59 152.01 239.31 155.55 224.03 158.55 208.75 160.52 193.48 161.16 178.2 160.38 162.92 158.28 147.64"
              stroke-dasharray="5 4" transform="rotate(30.53488372093023, 400, 400)" opacity="0.62"></path>
        <path d="M167.86 158.66Q183.53 164.57 199.19 170.09 214.85 174.78 230.51 178.25 246.17 180.21 261.83 180.5 277.49 179.1 293.15 176.11 308.81 171.8 324.47 166.51 340.13 160.68 355.8 154.79 371.46 149.34 387.12 144.76 402.78 141.45 418.44 139.66 434.1 139.56 449.76 141.15 465.42 144.29 481.08 148.73 496.74 154.1 512.4 159.96 528.07 165.82 543.73 171.2 559.39 175.66 575.05 178.82 590.71 180.42 606.37 180.34 622.03 178.57 637.69 175.27 653.35 170.71 669.01 165.26 674.5 180.52 674.95 195.77 670.28 211.03 661.2 226.28 649.01 241.54 635.51 256.79 622.66 272.04 612.35 287.3 606.07 302.55 604.75 317.81 608.58 333.06 617.01 348.31 628.78 363.57 642.2 378.82 655.3 394.08 666.16 409.33 673.19 424.59 675.38 439.84 672.39 455.09 664.68 470.35 653.35 485.6 640.08 500.86 626.79 516.11 615.43 531.37 607.66 546.62 604.62 561.87 606.74 577.13 613.73 592.38 624.55 607.64 637.63 622.89 651.05 638.14 662.86 653.4 647.34 667.26 631.82 678.86 616.3 687.25 600.78 691.74 585.26 691.95 569.74 687.87 554.22 679.83 538.7 668.5 523.18 654.82 507.65 639.91 492.13 625 476.61 611.34 461.09 600.04 445.57 592.05 430.05 588.02 414.53 588.28 399.01 592.81 383.49 601.25 367.97 612.89 352.45 626.76 336.93 641.73 321.4 656.56 305.88 670.02 290.36 680.99 274.84 688.58 259.32 692.16 243.8 691.42 228.28 686.43 212.76 677.61 197.24 665.68 181.72 651.62 166.2 636.61 162.99 621.67 159.35 606.74 155.81 591.8 152.87 576.87 150.98 561.93 150.4 546.99 151.23 532.06 153.33 517.12 156.41 502.19 160.02 487.25 163.62 472.32 166.69 457.38 168.78 442.44 169.59 427.51 169 412.57 167.09 397.64 164.14 382.7 160.59 367.76 156.95 352.83 153.76 337.89 151.48 322.96 150.44 308.02 150.8 293.09 152.5 278.15 155.29 263.21 158.78 248.28 162.44 233.34 165.74 218.41 168.21 203.47 169.47 188.54 169.35 173.6 167.86 158.66"
              stroke-dasharray="10 10" transform="rotate(32.88372093023256, 400, 400)" opacity="0.78"></path>
        <path d="M177.21 169.88Q192.43 175.6 207.65 180.73 222.86 184.88 238.08 187.72 253.3 189.04 268.51 188.74 283.73 186.83 298.95 183.47 314.16 178.91 329.38 173.51 344.6 167.68 359.81 161.88 375.03 156.55 390.24 152.1 405.46 148.88 420.68 147.14 435.89 147.01 451.11 148.5 466.33 151.5 481.54 155.77 496.76 160.98 511.98 166.74 527.19 172.59 542.41 178.09 557.63 182.81 572.84 186.39 588.06 188.54 603.27 189.11 618.49 188.04 633.71 185.43 648.92 181.47 664.14 176.47 666.95 191.35 664.98 206.24 658.5 221.12 648.4 236.01 636.06 250.89 623.16 265.78 611.48 280.66 602.59 295.55 597.72 310.43 597.54 325.32 602.06 340.2 610.68 355.09 622.2 369.97 635.07 384.86 647.51 399.74 657.84 414.63 664.63 429.51 666.96 444.4 664.52 459.28 657.63 474.17 647.24 489.05 634.76 503.94 621.91 518.82 610.43 533.71 601.9 548.59 597.49 563.48 597.79 578.37 602.76 593.25 611.73 608.14 623.46 623.02 636.37 637.91 648.67 652.79 633.8 665.07 618.93 674.79 604.06 681.2 589.19 683.82 574.31 682.43 559.44 677.14 544.57 668.37 529.7 656.79 514.83 643.29 499.96 628.92 485.08 614.78 470.21 601.98 455.34 591.5 440.47 584.14 425.6 580.48 410.73 580.8 395.85 585.08 380.98 592.98 366.11 603.89 351.24 616.98 336.37 631.22 321.5 645.53 306.62 658.79 291.75 669.98 276.88 678.23 262.01 682.92 247.14 683.67 232.27 680.43 217.39 673.44 202.52 663.26 187.65 650.66 172.78 636.61 169.25 622.03 165.55 607.44 162.18 592.86 159.61 578.27 158.18 563.69 158.1 549.1 159.36 534.52 161.81 519.93 165.1 505.34 168.79 490.76 172.37 476.17 175.35 461.59 177.32 447 178.02 432.42 177.36 417.83 175.41 403.25 172.45 388.66 168.88 374.07 165.19 359.49 161.88 344.9 159.41 330.32 158.11 315.73 158.17 301.15 159.56 286.56 162.11 271.98 165.46 257.39 169.16 242.8 172.7 228.22 175.6 213.63 177.45 199.05 178.02 184.46 177.21 169.88"
              stroke-dasharray="8 8" transform="rotate(35.23255813953489, 400, 400)" opacity="0.39"></path>
        <path d="M186.25 181.21Q200.98 186.61 215.72 191.25 230.46 194.79 245.2 196.98 259.94 197.65 274.67 196.77 289.41 194.38 304.15 190.68 318.89 185.91 333.62 180.43 348.36 174.63 363.1 168.93 377.84 163.74 392.57 159.43 407.31 156.31 422.05 154.62 436.79 154.46 451.52 155.85 466.26 158.7 481 162.79 495.74 167.83 510.47 173.46 525.21 179.28 539.95 184.85 554.69 189.79 569.42 193.74 584.16 196.4 598.9 197.6 613.64 197.24 628.37 195.35 650.6 197.09 654 216.61 646.07 231.11 635.33 245.61 623.15 260.11 611.07 274.6 600.64 289.1 593.19 303.6 589.67 318.1 590.52 332.59 595.64 347.09 604.37 361.59 615.61 376.09 627.91 390.58 639.72 405.08 649.52 419.58 656.07 434.08 658.53 448.58 656.58 463.07 650.49 477.57 641.01 492.07 629.37 506.57 617.04 521.06 605.59 535.56 596.5 550.06 590.91 564.56 589.53 579.05 592.56 593.55 599.58 608.05 609.72 622.55 621.68 637.04 633.94 651.54 619.72 662.07 605.51 669.86 591.29 674.34 577.07 675.2 562.86 672.37 548.64 666.05 534.42 656.7 520.21 644.99 505.99 631.78 491.77 618 477.56 604.65 463.34 592.7 449.12 583 434.91 576.26 420.69 572.95 406.47 573.32 392.26 577.35 378.04 584.73 363.82 594.95 349.61 607.25 335.39 620.76 321.17 634.51 306.96 647.5 292.74 658.79 278.52 667.58 264.31 673.23 250.09 675.33 235.87 673.73 221.66 668.55 207.44 660.16 193.22 649.16 179.01 636.35 175.3 622.13 171.67 607.9 168.6 593.68 166.47 579.46 165.56 565.23 165.97 551.01 167.67 536.79 170.42 522.56 173.89 508.34 177.62 494.12 181.15 479.89 184.02 465.67 185.86 451.45 186.45 437.22 185.71 423 183.73 408.78 180.76 394.56 177.18 380.33 173.45 366.11 170.05 351.89 167.41 337.66 165.86 323.44 165.6 309.22 166.67 294.99 168.92 280.77 172.08 266.55 175.74 252.32 179.43 238.1 182.68 223.88 185.08 209.65 186.32 195.43 186.25 181.21"
              stroke-dasharray="10 7" transform="rotate(37.58139534883721, 400, 400)" opacity="0.37"></path>
        <path d="M194.88 192.57Q209.11 197.54 223.34 201.6 237.56 204.48 251.79 205.98 266.01 206.01 280.24 204.57 294.46 201.75 308.69 197.74 322.92 192.8 337.14 187.28 351.37 181.54 365.59 175.96 379.82 170.92 394.04 166.75 408.27 163.75 422.49 162.09 436.72 161.91 450.95 163.21 465.17 165.9 479.4 169.8 493.62 174.66 507.85 180.14 522.07 185.88 536.3 191.49 550.53 196.6 564.75 200.86 578.98 204 593.2 205.79 607.43 206.13 621.65 204.98 641.95 207.57 642.13 226.81 633.14 240.9 622.12 254.99 610.37 269.08 599.29 283.17 590.19 297.26 584.15 311.35 581.89 325.44 583.68 339.53 589.29 353.62 598.08 367.71 608.99 381.8 620.73 395.89 631.91 409.98 641.2 424.07 647.5 438.16 650.07 452.25 648.59 466.34 643.24 480.43 634.67 494.52 623.87 508.61 612.14 522.7 600.87 536.79 591.4 550.88 584.84 564.97 581.98 579.06 583.15 593.15 588.22 607.24 596.58 621.33 607.25 635.42 618.96 649.51 605.39 658.19 591.83 664.04 578.27 666.67 564.7 665.91 551.14 661.8 537.58 654.62 524.01 644.85 510.45 633.15 496.89 620.3 483.33 607.16 469.76 594.61 456.2 583.5 442.64 574.56 429.07 568.4 415.51 565.43 401.95 565.85 388.38 569.63 374.82 576.52 361.26 586.05 347.7 597.59 334.13 610.36 320.57 623.52 307.01 636.16 293.44 647.46 279.88 656.65 266.32 663.11 252.76 666.41 239.19 666.34 225.63 662.89 212.07 656.3 198.5 647.01 184.94 635.63 181.2 621.79 177.8 607.94 175.13 594.1 173.51 580.25 173.13 566.41 174.05 552.56 176.14 538.71 179.17 524.87 182.77 511.02 186.51 497.18 189.96 483.33 192.69 469.49 194.4 455.64 194.87 441.79 194.05 427.95 192.04 414.1 189.08 400.26 185.51 386.41 181.76 372.57 178.28 358.72 175.47 344.87 173.68 331.03 173.11 317.18 173.83 303.34 175.76 289.49 178.66 275.65 182.2 261.8 185.95 247.95 189.47 234.11 192.34 220.26 194.22 206.42 194.88 192.57"
              stroke-dasharray="1 8" transform="rotate(39.93023255813953, 400, 400)" opacity="0.69"></path>
        <path d="M203.06 203.88Q216.75 208.3 230.43 211.71 244.11 213.89 257.8 214.71 271.48 214.12 285.16 212.15 298.85 208.93 312.53 204.65 326.21 199.59 339.9 194.06 353.58 188.39 367.26 182.96 380.95 178.08 394.63 174.07 408.31 171.17 422 169.57 435.68 169.36 449.36 170.56 463.05 173.09 476.73 176.8 490.41 181.45 504.1 186.76 517.78 192.39 531.46 198 545.15 203.24 558.83 207.77 572.51 211.33 586.2 213.68 599.88 214.68 613.56 214.28 632.03 217.78 629.52 236.74 619.86 250.4 608.9 264.06 597.83 277.72 587.88 291.38 580.15 305.04 575.48 318.7 574.4 332.36 577.01 346.03 583.03 359.69 591.8 373.35 602.35 387.01 613.53 400.67 624.09 414.33 632.89 427.99 638.94 441.65 641.59 455.31 640.54 468.97 635.9 482.63 628.2 496.29 618.27 509.95 607.21 523.61 596.23 537.27 586.56 550.93 579.24 564.59 575.08 578.25 574.55 591.91 577.71 605.58 584.19 619.24 593.3 632.9 604.02 646.56 591.11 653.34 578.19 657.31 565.27 658.2 552.35 655.98 539.43 650.77 526.52 642.91 513.6 632.87 500.68 621.29 487.76 608.88 474.85 596.41 461.93 584.67 449.01 574.37 436.09 566.17 423.18 560.57 410.26 557.91 397.34 558.37 384.42 561.92 371.51 568.33 358.59 577.2 345.67 587.99 332.75 600.03 319.84 612.56 306.92 624.8 294 636.01 281.08 645.47 268.17 652.59 255.25 656.95 242.33 658.26 229.41 656.45 216.5 651.63 203.58 644.09 190.66 634.31 187.06 620.86 183.99 607.4 181.81 593.95 180.76 580.5 180.93 567.05 182.33 553.6 184.79 540.15 188.04 526.7 191.73 513.25 195.45 499.8 198.79 486.35 201.37 472.9 202.93 459.45 203.29 446 202.4 432.55 200.36 419.1 197.41 405.64 193.85 392.19 190.1 378.74 186.55 365.29 183.6 351.84 181.58 338.39 180.7 324.94 181.07 311.49 182.64 298.04 185.24 284.59 188.58 271.14 192.3 257.69 195.98 244.24 199.23 230.79 201.68 217.33 203.06 203.88"
              stroke-dasharray="1 2" transform="rotate(42.27906976744186, 400, 400)" opacity="0.70"></path>
        <path d="M210.74 215.05Q223.86 218.84 236.97 221.54 250.09 223 263.2 223.14 276.32 221.95 289.43 219.49 302.55 215.92 315.66 211.43 328.78 206.28 341.89 200.77 355 195.21 368.12 189.93 381.23 185.23 394.35 181.38 407.46 178.6 420.58 177.05 433.69 176.82 446.81 177.92 459.92 180.29 473.04 183.79 486.15 188.23 499.27 193.34 512.38 198.84 525.49 204.4 538.61 209.71 551.72 214.46 564.84 218.38 577.95 221.24 591.07 222.88 604.18 223.2 620.96 227.65 616.34 246.32 606.39 259.53 595.78 272.74 585.6 285.95 576.89 299.16 570.54 312.37 567.18 325.57 567.16 338.78 570.49 351.99 576.83 365.2 585.52 378.41 595.69 391.62 606.29 404.83 616.26 418.04 624.57 431.25 630.37 444.46 633.09 457.67 632.43 470.87 628.46 484.08 621.6 497.29 612.54 510.5 602.2 523.71 591.64 536.92 581.92 550.13 574.05 563.34 568.82 576.55 566.76 589.76 568.09 602.96 572.67 616.17 578.59 638.43 564.86 649.65 552.57 648.96 540.28 645.45 528 639.33 515.71 630.94 503.42 620.78 491.14 609.42 478.85 597.52 466.56 585.76 454.28 574.82 441.99 565.33 429.71 557.83 417.42 552.76 405.13 550.4 392.85 550.89 380.56 554.21 368.27 560.16 355.99 568.41 343.7 578.46 331.41 589.76 319.13 601.65 306.84 613.44 294.55 624.45 282.27 634.06 269.98 641.72 257.69 646.97 245.41 649.52 233.12 649.22 220.83 646.09 208.55 640.32 196.26 632.22 192.94 619.18 190.34 606.15 188.72 593.11 188.25 580.07 188.98 567.04 190.83 554 193.61 540.96 197.04 527.93 200.77 514.89 204.43 501.85 207.63 488.82 210.06 475.78 211.46 462.75 211.69 449.71 210.73 436.67 208.68 423.64 205.74 410.6 202.22 397.56 198.47 384.53 194.88 371.49 191.81 358.45 189.57 345.42 188.39 332.38 188.4 319.35 189.58 306.31 191.83 293.27 194.91 280.24 198.51 267.2 202.25 254.16 205.77 241.13 208.7 228.09 210.74 215.05"
              stroke-dasharray="3 5" transform="rotate(44.627906976744185, 400, 400)" opacity="0.29"></path>
        <path d="M217.9 225.99Q230.43 229.07 242.95 231.03 255.48 231.77 268 231.25 280.52 229.5 293.05 226.6 305.57 222.72 318.1 218.06 330.62 212.87 343.15 207.41 355.67 201.99 368.2 196.89 380.72 192.37 393.25 188.69 405.77 186.02 418.29 184.53 430.82 184.27 443.34 185.28 455.87 187.49 468.39 190.78 480.92 194.99 493.44 199.89 505.97 205.22 518.49 210.69 531.02 216.03 543.54 220.93 556.07 225.15 568.59 228.46 581.11 230.69 593.64 231.71 608.91 237.11 602.77 255.47 592.87 268.2 582.9 280.94 573.77 293.68 566.36 306.41 561.36 319.15 559.23 331.88 560.18 344.62 564.12 357.35 570.68 370.09 579.24 382.83 589 395.56 599.04 408.3 608.41 421.03 616.25 433.77 621.81 446.5 624.56 459.24 624.26 471.97 620.93 484.71 614.88 497.45 606.68 510.18 597.1 522.92 587.04 535.65 577.45 548.39 569.22 561.12 563.13 573.86 559.76 586.59 559.41 599.33 562.12 612.07 565.71 632.7 552.1 641.09 540.42 638.97 528.75 634.36 517.07 627.51 505.4 618.77 493.72 608.62 482.05 597.58 470.37 586.25 458.7 575.22 447.02 565.08 435.35 556.37 423.67 549.54 412 544.97 400.32 542.89 388.65 543.42 376.98 546.52 365.3 552.03 353.63 559.66 341.95 569 330.28 579.57 318.6 590.79 306.93 602.08 295.25 612.83 283.58 622.48 271.9 630.51 260.23 636.5 248.55 640.13 236.88 641.21 225.2 639.67 213.53 635.62 201.85 629.24 198.96 616.64 196.91 604.04 195.9 591.44 196.03 578.84 197.28 566.24 199.54 553.63 202.6 541.03 206.16 528.43 209.89 515.83 213.44 503.23 216.49 490.63 218.73 478.02 219.97 465.42 220.08 452.82 219.06 440.22 217 427.62 214.09 415.02 210.61 402.41 206.88 389.81 203.26 377.21 200.08 364.61 197.65 352.01 196.19 339.41 195.84 326.81 196.63 314.2 198.48 301.6 201.23 289 204.62 276.4 208.32 263.8 211.99 251.2 215.29 238.59 217.9 225.99"
              stroke-dasharray="7 11" transform="rotate(46.97674418604651, 400, 400)" opacity="0.83"></path>
        <path d="M224.54 236.61Q236.46 238.93 248.38 240.14 260.3 240.17 272.22 239.02 284.14 236.76 296.06 233.47 307.97 229.34 319.89 224.56 331.81 219.36 343.73 214 355.65 208.73 367.57 203.82 379.49 199.5 391.41 195.99 403.33 193.44 415.24 192 427.16 191.73 439.08 192.64 451 194.68 462.92 197.77 474.84 201.74 486.76 206.4 498.68 211.54 510.6 216.89 522.52 222.2 534.43 227.2 546.35 231.66 558.27 235.36 570.19 238.11 582.11 239.79 596.05 246.09 588.99 264.12 579.48 276.36 570.35 288.6 562.4 300.84 556.32 313.08 552.62 325.32 551.64 337.56 553.44 349.8 557.88 362.04 564.58 374.29 572.95 386.53 582.28 398.77 591.75 411.01 600.56 423.25 607.93 435.49 613.24 447.73 616.02 459.97 616.04 472.21 613.3 484.45 608.02 496.69 600.67 508.94 591.88 521.18 582.41 533.42 573.07 545.66 564.68 557.9 557.96 570.14 553.48 582.38 551.64 594.62 552.59 606.86 553.74 625.89 540.14 631.64 529.05 628.29 517.96 622.77 506.88 615.37 495.79 606.44 484.71 596.41 473.62 585.78 462.53 575.07 451.45 564.79 440.36 555.44 429.27 547.48 418.19 541.31 407.1 537.21 396.02 535.39 384.93 535.94 373.84 538.83 362.76 543.92 351.67 550.96 340.59 559.61 329.5 569.45 318.41 580 307.33 590.74 296.24 601.15 285.15 610.73 274.07 619 262.98 625.57 251.9 630.12 240.81 632.42 229.72 632.36 218.64 629.94 207.55 625.29 205.19 613.14 203.77 600.99 203.4 588.85 204.12 576.7 205.86 564.56 208.48 552.41 211.74 540.26 215.38 528.12 219.06 515.97 222.49 503.82 225.35 491.68 227.4 479.53 228.47 467.39 228.46 455.24 227.38 443.09 225.31 430.95 222.44 418.8 219.02 406.66 215.33 394.51 211.7 382.36 208.44 370.22 205.83 358.07 204.1 345.93 203.4 333.78 203.78 321.63 205.22 309.49 207.59 297.34 210.68 285.19 214.24 273.05 217.94 260.9 221.48 248.76 224.54 236.61"
              stroke-dasharray="10 7" transform="rotate(49.325581395348834, 400, 400)" opacity="0.39"></path>
        <path d="M230.69 246.83Q242 248.37 253.3 248.83 264.61 248.18 275.91 246.45 287.21 243.72 298.52 240.12 309.82 235.79 321.13 230.94 332.43 225.77 343.73 220.53 355.04 215.44 366.34 210.74 377.64 206.62 388.95 203.28 400.25 200.86 411.56 199.48 422.86 199.19 434.16 200 445.47 201.88 456.77 204.75 468.07 208.48 479.38 212.9 490.68 217.81 501.99 223 513.29 228.23 524.59 233.28 535.9 237.91 547.2 241.92 558.5 245.13 569.81 247.4 582.62 254.55 575.21 272.21 566.35 283.93 558.25 295.66 551.55 307.38 546.79 319.11 544.33 330.84 544.38 342.56 546.92 354.29 551.76 366.02 558.52 377.74 566.65 389.47 575.53 401.2 584.44 412.92 592.69 424.65 599.61 436.37 604.67 448.1 607.47 459.83 607.77 471.55 605.57 483.28 601.02 495.01 594.5 506.73 586.52 518.46 577.71 530.19 568.76 541.91 560.38 553.64 553.23 565.36 547.89 577.09 544.76 588.82 544.11 600.54 542.83 618.01 529.16 621.37 518.64 616.97 508.12 610.74 497.59 602.97 487.07 593.99 476.55 584.21 466.03 574.06 455.5 564 444.98 554.47 434.46 545.91 423.93 538.68 413.41 533.12 402.89 529.47 392.36 527.89 381.84 528.46 371.32 531.15 360.8 535.84 350.27 542.31 339.75 550.29 329.23 559.42 318.7 569.28 308.18 579.44 297.66 589.45 287.14 598.86 276.61 607.25 266.09 614.25 255.57 619.54 245.04 622.89 234.52 624.15 224 623.26 213.47 620.26 211.75 608.59 210.99 596.92 211.25 585.26 212.53 573.59 214.71 561.92 217.62 550.25 221.04 538.58 224.69 526.91 228.29 515.24 231.55 503.57 234.21 491.9 236.06 480.23 236.96 468.56 236.84 456.89 235.7 445.22 233.63 433.55 230.81 421.88 227.44 410.21 223.81 398.54 220.18 386.87 216.86 375.2 214.11 363.53 212.13 351.86 211.09 340.19 211.08 328.52 212.08 316.85 214.02 305.18 216.76 293.51 220.06 281.84 223.68 270.17 227.32 258.5 230.69 246.83"
              stroke-dasharray="9 6" transform="rotate(51.674418604651166, 400, 400)" opacity="0.18"></path>
        <path d="M236.42 256.57Q247.1 257.33 257.79 257.07 268.47 255.78 279.16 253.53 289.84 250.41 300.53 246.53 311.21 242.07 321.9 237.19 332.58 232.11 343.27 227.01 353.95 222.13 364.64 217.64 375.33 213.74 386.01 210.57 396.7 208.28 407.38 206.96 418.07 206.65 428.75 207.37 439.44 209.09 450.12 211.74 460.81 215.21 471.49 219.37 482.18 224.04 492.86 229.03 503.55 234.14 514.23 239.17 524.92 243.91 535.6 248.16 546.29 251.75 556.97 254.54 568.86 262.45 561.61 279.69 553.62 290.88 546.68 302.07 541.27 313.27 537.78 324.46 536.47 335.65 537.43 346.85 540.6 358.04 545.74 369.24 552.48 380.43 560.34 391.62 568.75 402.82 577.11 414.01 584.81 425.21 591.3 436.4 596.11 447.59 598.89 458.79 599.45 469.98 597.74 481.17 593.89 492.37 588.18 503.56 581.01 514.76 572.9 525.95 564.44 537.14 556.23 548.34 548.87 559.53 542.89 570.72 538.72 581.92 536.66 593.11 533.08 609.07 519.32 610.32 509.34 605.08 499.35 598.34 489.36 590.36 479.38 581.47 469.39 572.03 459.4 562.43 449.42 553.06 439.43 544.29 429.45 536.49 419.46 529.96 409.47 524.99 399.49 521.75 389.5 520.4 379.51 520.99 369.53 523.48 359.54 527.78 349.56 533.72 339.57 541.04 329.58 549.47 319.6 558.65 309.61 568.2 299.62 577.75 289.64 586.9 279.65 595.28 269.67 602.56 259.68 608.43 249.69 612.66 239.71 615.07 224.21 609.26 218.61 591.79 219.49 580.61 221.27 569.44 223.83 558.26 226.97 547.09 230.47 535.92 234.09 524.74 237.55 513.57 240.62 502.4 243.06 491.22 244.7 480.05 245.43 468.87 245.19 457.7 244 446.53 241.95 435.35 239.18 424.18 235.89 413 232.32 401.83 228.72 390.66 225.37 379.48 222.49 368.31 220.29 357.14 218.94 345.96 218.53 334.79 219.09 323.61 220.58 312.44 222.89 301.27 225.86 290.09 229.27 278.92 232.87 267.74 236.42 256.57"
              stroke-dasharray="3 7" transform="rotate(54.02325581395348, 400, 400)" opacity="0.24"></path>
        <path d="M241.79 265.77Q251.86 265.78 261.93 264.83 272 262.97 282.07 260.26 292.13 256.8 302.2 252.73 312.27 248.18 322.34 243.34 332.41 238.37 342.48 233.45 352.55 228.79 362.62 224.53 372.69 220.84 382.76 217.86 392.83 215.7 402.9 214.43 412.97 214.11 423.04 214.74 433.11 216.3 443.17 218.73 453.24 221.95 463.31 225.83 473.38 230.24 483.45 235 493.52 239.95 503.59 244.9 513.66 249.67 523.73 254.09 533.8 257.98 543.87 261.21 555 269.77 548.36 286.53 541.42 297.17 535.71 307.82 531.57 318.46 529.3 329.11 529.03 339.75 530.79 350.4 534.46 361.04 539.8 371.69 546.46 382.34 554 392.98 561.93 403.63 569.74 414.27 576.91 424.92 582.98 435.56 587.54 446.21 590.3 456.86 591.08 467.5 589.83 478.15 586.62 488.79 581.68 499.44 575.32 510.08 567.95 520.73 560.07 531.37 552.18 542.02 544.8 552.67 538.41 563.31 533.44 573.96 530.2 584.6 524.55 599.14 510.71 598.57 501.23 592.7 491.75 585.62 482.28 577.59 472.8 568.92 463.33 559.91 453.85 550.91 444.38 542.25 434.9 534.24 425.42 527.18 415.95 521.32 406.47 516.9 397 514.06 387.52 512.92 378.05 513.51 368.57 515.82 359.09 519.75 349.62 525.17 340.14 531.87 330.67 539.61 321.19 548.1 311.72 557.03 302.24 566.07 292.77 574.88 283.29 583.15 273.81 590.56 264.34 596.85 254.86 601.77 245.39 605.16 231.01 601.55 226.68 585.55 228.13 574.9 230.35 564.24 233.2 553.58 236.5 542.92 240.03 532.26 243.55 521.6 246.84 510.94 249.69 500.28 251.9 489.62 253.33 478.96 253.89 468.3 253.54 457.64 252.31 446.98 250.27 436.32 247.56 425.66 244.35 415 240.86 404.35 237.32 393.69 233.94 383.03 230.97 372.37 228.58 361.71 226.94 351.05 226.16 340.39 226.28 329.73 227.29 319.07 229.14 308.41 231.7 297.75 234.79 287.09 238.23 276.43 241.79 265.77"
              stroke-dasharray="8 6" transform="rotate(56.372093023255815, 400, 400)" opacity="0.29"></path>
        <path d="M246.91 274.38Q256.37 273.67 265.83 272.1 275.29 269.73 284.76 266.64 294.22 262.93 303.68 258.72 313.14 254.15 322.6 249.38 332.06 244.56 341.52 239.86 350.98 235.42 360.45 231.41 369.91 227.95 379.37 225.15 388.83 223.12 398.29 221.91 407.75 221.57 417.21 222.11 426.68 223.51 436.14 225.73 445.6 228.69 455.06 232.29 464.52 236.41 473.98 240.92 483.44 245.67 492.9 250.49 502.37 255.23 511.83 259.72 521.29 263.83 530.75 267.41 541.29 276.48 535.63 292.71 529.85 302.79 525.39 312.88 522.49 322.96 521.34 333.04 522 343.13 524.43 353.21 528.48 363.3 533.93 373.38 540.44 383.47 547.63 393.55 555.08 403.64 562.35 413.72 569.01 423.8 574.66 433.89 578.98 443.97 581.7 454.06 582.66 464.14 581.82 474.23 579.22 484.31 575 494.4 569.43 504.48 562.83 514.56 555.6 524.65 548.14 534.73 540.92 544.82 534.35 554.9 528.82 564.99 524.66 575.07 517.23 588.27 503.35 586.21 494.36 579.9 485.37 572.66 476.38 564.74 467.39 556.39 458.4 547.89 449.41 539.53 440.42 531.59 431.43 524.32 422.45 517.98 413.46 512.76 404.47 508.86 395.48 506.39 386.49 505.44 377.5 506.03 368.51 508.16 359.52 511.74 350.53 516.67 341.54 522.77 332.55 529.85 323.56 537.66 314.57 545.95 305.58 554.43 296.59 562.84 287.6 570.89 278.61 578.31 269.62 584.85 260.64 590.3 251.65 594.48 238.34 592.8 235.22 578.23 237.17 568.1 239.75 557.98 242.82 547.85 246.2 537.72 249.68 527.59 253.06 517.46 256.14 507.33 258.75 497.21 260.71 487.08 261.93 476.95 262.32 466.82 261.87 456.69 260.6 446.56 258.59 436.44 255.94 426.31 252.83 416.18 249.44 406.05 245.96 395.92 242.6 385.79 239.55 375.67 237.01 365.54 235.11 355.41 233.98 345.28 233.67 335.15 234.21 325.02 235.56 314.9 237.65 304.77 240.35 294.64 243.5 284.51 246.91 274.38"
              stroke-dasharray="11 11" transform="rotate(58.720930232558146, 400, 400)" opacity="0.50"></path>
        <path d="M251.9 282.36Q260.77 280.99 269.63 278.88 278.5 276.09 287.37 272.69 296.23 268.8 305.1 264.52 313.96 259.99 322.83 255.33 331.7 250.7 340.56 246.23 349.43 242.05 358.29 238.28 367.16 235.05 376.03 232.44 384.89 230.53 393.76 229.39 402.62 229.04 411.49 229.49 420.35 230.74 429.22 232.74 438.09 235.44 446.95 238.75 455.82 242.58 464.68 246.8 473.55 251.31 482.42 255.95 491.28 260.59 500.15 265.1 509.01 269.33 517.88 273.17 527.97 282.6 523.55 298.23 519 307.74 515.77 317.25 514.03 326.77 513.89 336.28 515.34 345.79 518.31 355.31 522.65 364.82 528.11 374.33 534.42 383.85 541.23 393.36 548.19 402.87 554.93 412.39 561.09 421.9 566.34 431.41 570.41 440.93 573.08 450.44 574.2 459.95 573.73 469.47 571.67 478.98 568.15 488.49 563.35 498.01 557.52 507.52 550.98 517.03 544.06 526.55 537.15 536.06 530.59 545.57 524.75 555.08 519.92 564.6 511.07 576.55 497.24 573.32 488.72 566.77 480.19 559.54 471.67 551.85 463.14 543.92 454.62 535.99 446.09 528.3 437.57 521.08 429.04 514.55 420.52 508.89 411.99 504.29 394.94 499.41 377.89 498.56 369.37 500.51 360.84 503.77 352.32 508.22 343.79 513.75 335.27 520.18 326.74 527.32 318.22 534.96 309.69 542.87 301.17 550.81 292.65 558.55 284.12 565.85 275.6 572.51 267.07 578.31 258.55 583.08 246.43 571.66 249.45 550.68 252.65 541.1 256.03 531.52 259.4 521.94 262.6 512.35 265.44 502.77 267.79 493.19 269.5 483.6 270.51 474.02 270.74 464.44 270.19 454.85 268.89 445.27 266.9 435.69 264.34 426.1 261.33 416.52 258.04 406.94 254.65 397.36 251.32 387.77 248.24 378.19 245.58 368.61 243.46 359.02 242.01 349.44 241.3 339.86 241.37 330.27 242.22 320.69 243.79 311.11 246.02 301.52 248.77 291.94 251.9 282.36"
              stroke-dasharray="4 7" transform="rotate(61.06976744186046, 400, 400)" opacity="0.61"></path>
        <path d="M256.9 289.68Q273.47 285.17 290.05 278.42 306.62 270.14 323.19 261.21 339.77 252.58 356.34 245.15 372.91 239.72 389.48 236.86 406.06 236.88 422.63 239.77 439.2 245.22 455.78 252.67 472.35 261.31 488.92 270.24 505.5 278.5 522.07 285.23 512.24 303.1 506.86 320.97 506.92 338.84 512.42 356.71 522.33 374.58 534.8 392.45 547.49 410.32 558.03 428.19 564.44 446.06 565.54 463.93 561.12 481.81 551.99 499.68 539.87 517.55 527.03 535.42 515.87 553.29 508.46 571.16 492.31 560.01 476.15 546.33 460 531.55 443.84 517.24 427.68 504.92 411.53 495.89 395.37 491.1 379.22 491.08 363.06 495.81 346.9 504.8 330.75 517.09 314.59 531.39 298.43 546.17 282.28 559.88 259.93 565.76 259.43 542.41 265.97 524.36 272.15 506.31 276.8 488.25 279.05 470.2 278.49 452.15 275.22 434.1 269.85 416.04 263.39 397.99 257.03 379.94 251.98 361.89 249.18 343.84 249.15 325.78 251.89 307.73 256.9 289.68"
              stroke-dasharray="1 8" transform="rotate(63.41860465116279, 400, 400)" opacity="0.18"></path>
        <path d="M262.04 296.33Q277.49 290.99 292.94 283.85 308.39 275.61 323.85 267.02 339.3 258.91 354.75 252.02 370.2 247.01 385.65 244.34 401.1 244.27 416.56 246.81 432.01 251.71 447.46 258.52 462.91 266.59 478.36 275.17 493.82 283.46 509.27 290.66 501.79 307.37 498.67 324.07 500.41 340.78 506.73 357.49 516.58 374.19 528.32 390.9 540.01 407.6 549.71 424.31 555.8 441.02 557.28 457.72 553.9 474.43 546.22 491.13 535.51 507.84 523.56 524.55 512.34 541.25 503.73 557.96 488.44 546.39 473.15 533.1 457.86 519.32 442.57 506.36 427.28 495.44 411.99 487.57 396.7 483.49 381.41 483.6 366.12 487.88 350.83 495.93 335.54 506.98 320.25 520.02 304.96 533.8 289.67 547.03 269.03 554.31 269.64 533.22 275.99 516.3 281.68 499.38 285.77 482.46 287.56 465.54 286.78 448.62 283.54 431.7 278.38 414.78 272.17 397.86 265.92 380.94 260.69 364.02 257.33 347.1 256.4 330.18 258.06 313.25 262.04 296.33"
              stroke-dasharray="4 5" transform="rotate(65.76744186046513, 400, 400)" opacity="0.60"></path>
        <path d="M267.46 302.33Q281.83 296.35 296.2 289.02 310.57 280.94 324.94 272.79 339.31 265.22 353.68 258.88 368.05 254.29 382.42 251.82 396.79 251.67 411.16 253.87 425.53 258.23 439.9 264.38 454.27 271.83 468.64 279.95 483.01 288.07 497.38 295.53 492.25 311.07 491.17 326.61 494.31 342.15 501.19 357.69 510.83 373.23 521.8 388.77 532.51 404.31 541.39 419.85 547.14 435.39 548.93 450.93 546.49 466.47 540.18 482.01 530.92 497.55 520.06 513.1 509.19 528.64 499.91 544.18 485.46 532.57 471.02 519.92 456.58 507.28 442.14 495.69 427.7 486.1 413.26 479.32 398.82 475.9 384.38 476.12 369.94 479.97 355.5 487.13 341.06 497 326.62 508.77 312.18 521.47 297.74 534.05 278.65 542.23 280.03 523.22 286.05 507.44 291.19 491.66 294.68 475.89 296.04 460.11 295.05 444.33 291.86 428.55 286.93 412.78 281 397 274.91 381.22 269.57 365.44 265.75 349.67 264.02 333.89 264.61 318.11 267.46 302.33"
              stroke-dasharray="3 4" transform="rotate(68.11627906976744, 400, 400)" opacity="0.21"></path>
        <path d="M273.3 307.7Q286.63 301.31 299.95 293.95 313.28 286.17 326.61 278.51 339.94 271.54 353.27 265.76 366.6 261.57 379.93 259.29 393.26 259.08 406.59 260.95 419.91 264.77 433.24 270.27 446.57 277.04 459.9 284.6 473.23 292.4 486.56 299.89 483.65 314.27 484.35 328.65 488.58 343.03 495.79 357.41 505.07 371.79 515.23 386.17 524.98 400.54 533.07 414.92 538.48 429.3 540.51 443.68 538.9 458.06 533.87 472.44 526.04 486.82 516.43 501.2 506.25 515.58 496.8 529.96 483.2 518.65 469.6 506.86 456 495.45 442.4 485.22 428.81 476.93 415.21 471.16 401.61 468.33 388.01 468.65 374.41 472.09 360.81 478.41 347.21 487.14 333.61 497.67 320.01 509.23 306.41 520.99 288.74 529.62 290.56 512.51 296.11 497.88 300.63 483.25 303.54 468.62 304.47 453.99 303.3 439.36 300.17 424.73 295.5 410.1 289.86 395.48 283.99 380.85 278.63 366.22 274.46 351.59 272.02 336.96 271.62 322.33 273.3 307.7"
              stroke-dasharray="6 4" transform="rotate(70.46511627906978, 400, 400)" opacity="0.63"></path>
        <path d="M279.67 312.49Q292 305.89 304.32 298.68 316.65 291.3 328.97 284.22 341.3 277.86 353.62 272.63 365.95 268.86 378.28 266.77 390.6 266.5 402.93 268.06 415.25 271.36 427.58 276.19 439.9 282.26 452.23 289.17 464.55 296.51 476.88 303.82 475.97 317.05 478.15 330.28 483.17 343.51 490.49 356.73 499.29 369.96 508.61 383.19 517.42 396.42 524.75 409.64 529.8 422.87 532.01 436.1 531.13 449.33 527.27 462.55 520.84 475.78 512.56 489.01 503.34 502.24 494.19 515.47 481.43 504.76 468.67 494 455.92 483.86 443.16 474.98 430.41 467.9 417.65 463.06 404.89 460.77 392.14 461.17 379.38 464.23 366.63 469.76 353.87 477.42 341.11 486.73 328.36 497.12 315.6 507.93 302.68 502.16 310.01 474.25 312.33 460.77 312.86 447.29 311.53 433.81 308.49 420.33 304.08 406.85 298.77 393.37 293.16 379.89 287.86 366.41 283.46 352.93 280.44 339.45 279.13 325.97 279.67 312.49"
              stroke-dasharray="9 6" transform="rotate(72.81395348837209, 400, 400)" opacity="0.71"></path>
        <path d="M286.69 316.75Q298.04 310.17 309.4 303.26 320.75 296.38 332.11 289.92 343.47 284.19 354.82 279.52 366.18 276.15 377.53 274.25 388.89 273.93 400.25 275.2 411.6 278 422.96 282.18 434.31 287.51 445.67 293.72 457.03 300.47 468.38 307.41 469.19 319.5 472.51 331.59 478.03 343.68 485.25 355.77 493.47 367.86 501.93 379.96 509.83 392.05 516.44 404.14 521.12 416.23 523.44 428.32 523.19 440.41 520.38 452.5 515.28 464.59 508.37 476.68 500.3 488.77 491.82 500.86 479.92 490.99 468.01 481.38 456.11 472.56 444.21 464.97 432.31 459.03 420.4 455.05 408.5 453.24 396.6 453.69 384.69 456.39 372.79 461.19 360.89 467.84 348.99 475.97 337.08 485.17 325.18 494.94 313.03 490.21 319.28 464.79 321.04 452.45 321.2 440.12 319.75 427.78 316.81 415.44 312.67 403.11 307.72 390.77 302.41 378.43 297.26 366.1 292.73 353.76 289.27 341.42 287.19 329.09 286.69 316.75"
              stroke-dasharray="7 7" transform="rotate(75.16279069767442, 400, 400)" opacity="0.90"></path>
        <path d="M294.41 320.56Q304.83 314.19 315.24 307.72 325.66 301.44 336.07 295.63 346.49 290.55 356.9 286.42 367.32 283.44 377.73 281.72 388.15 281.36 398.56 282.37 408.98 284.69 419.39 288.23 429.81 292.83 440.22 298.29 450.64 304.36 461.05 310.76 463.22 321.73 467.35 332.71 473.1 343.68 480.04 354.65 487.6 365.62 495.19 376.59 502.22 387.56 508.12 398.53 512.43 409.5 514.81 420.47 515.07 431.44 513.19 442.41 509.32 453.38 503.76 464.35 496.96 475.32 489.45 486.3 478.42 477.45 467.39 469.08 456.36 461.55 445.33 455.2 434.29 450.31 423.26 447.1 412.23 445.72 401.2 446.22 390.17 448.58 379.14 452.7 368.1 458.39 357.07 465.4 346.04 473.42 335.01 482.09 323.41 478.02 328.44 455.01 329.66 443.8 329.49 432.6 327.94 421.4 325.13 410.19 321.28 398.99 316.69 387.79 311.74 376.58 306.8 365.38 302.28 354.18 298.52 342.97 295.83 331.77 294.41 320.56"
              stroke-dasharray="4 6" transform="rotate(77.51162790697674, 400, 400)" opacity="0.87"></path>
        <path d="M302.91 324.02Q312.4 318.03 321.9 312.12 331.39 306.49 340.89 301.37 350.38 296.93 359.88 293.34 369.37 290.73 378.87 289.2 388.36 288.81 397.86 289.57 407.35 291.45 416.85 294.38 426.34 298.25 435.84 302.93 445.34 308.24 454.83 313.98 457.99 323.85 462.59 333.72 468.33 343.6 474.83 353.47 481.67 363.34 488.4 373.21 494.57 383.09 499.8 392.96 503.73 402.83 506.11 412.7 506.78 422.57 505.7 432.45 502.94 442.32 498.68 452.19 484.96 463.15 466.58 457.14 456.44 450.87 446.3 445.68 436.16 441.75 426.03 439.23 415.89 438.21 405.75 438.74 395.61 440.79 385.48 444.28 375.34 449.09 365.2 455.04 355.06 461.9 344.93 469.44 333.73 465.73 337.45 445.04 338.19 434.96 337.73 424.87 336.12 414.79 333.45 404.7 329.9 394.62 325.7 384.53 321.13 374.45 316.49 364.36 312.07 354.28 308.18 344.19 305.05 334.1 302.91 324.02"
              stroke-dasharray="0 1" transform="rotate(79.86046511627906, 400, 400)" opacity="0.61"></path>
        <path d="M312.17 327.22Q320.76 321.77 329.35 316.5 337.94 311.58 346.53 307.15 355.12 303.34 363.71 300.27 380.89 297.15 398.07 296.8 406.65 298.27 415.24 300.63 423.83 303.8 432.42 307.7 441.01 312.2 449.6 317.18 453.38 325.98 458.14 334.77 463.64 343.57 469.59 352.37 475.66 361.16 481.53 369.96 486.9 378.76 491.48 387.55 495.03 396.35 497.36 405.15 498.34 413.94 497.92 422.74 496.13 431.54 493.06 440.33 481.72 450.29 465.36 445.6 456.14 440.53 446.93 436.4 437.71 433.34 428.49 431.43 419.28 430.73 410.06 431.26 400.84 433.02 391.63 435.93 382.41 439.93 373.19 444.88 363.98 450.64 354.76 457.05 343.89 453.49 346.31 435.04 346.6 426.06 345.91 417.07 344.27 408.09 341.76 399.1 338.53 390.12 334.73 381.13 330.58 372.14 326.29 363.16 322.1 354.17 318.21 345.19 314.84 336.2 312.17 327.22"
              stroke-dasharray="7 8" transform="rotate(82.20930232558139, 400, 400)" opacity="0.36"></path>
        <path d="M322.2 330.27Q337.58 320.93 352.95 312.99 368.33 307.22 383.71 304.16 399.09 304.08 414.46 307 429.84 312.64 445.22 320.48 453.91 335.97 464.28 351.46 474.6 366.95 483.17 382.44 488.54 397.93 489.85 413.42 486.86 428.91 480.08 444.4 463.55 434.5 447.02 427.38 430.48 423.69 413.95 423.79 397.42 427.66 380.88 434.95 358.57 442.96 354.99 425.14 354.03 409.33 350.08 393.52 343.79 377.71 336.21 361.9 328.59 346.08 322.2 330.27"
              stroke-dasharray="8 11" transform="rotate(84.55813953488372, 400, 400)" opacity="0.68"></path>
        <path d="M332.92 333.3Q346.49 325.44 360.07 318.92 373.64 314.2 387.21 311.63 400.78 311.39 414.36 313.51 427.93 317.81 441.5 324.01 449.8 337.44 458.89 350.88 467.61 364.31 474.85 377.74 479.68 391.18 481.5 404.61 480.06 418.05 475.56 431.48 460.98 423.89 446.41 418.61 431.83 416.02 417.25 416.31 402.67 419.46 388.1 425.24 367.95 431.21 363.48 415.49 362.09 401.79 358.4 388.09 352.87 374.39 346.21 360.7 339.26 347 332.92 333.3"
              stroke-dasharray="0 4" transform="rotate(86.90697674418604, 400, 400)" opacity="0.93"></path>
        <path d="M344.25 336.43Q356 330.1 367.75 324.94 379.5 321.21 391.25 319.11 403 318.75 414.75 320.16 426.5 323.26 438.25 327.88 445.7 339.3 453.38 350.72 460.54 362.15 466.53 373.57 470.78 385 472.88 396.42 465.09 410.81 444.97 410.09 432.4 408.41 419.83 408.83 407.26 411.33 394.69 415.77 376.85 419.88 371.76 406.2 370.09 394.57 366.72 382.94 361.96 371.32 356.27 359.69 350.18 348.06 344.25 336.43"
              stroke-dasharray="5 7" transform="rotate(89.25581395348837, 400, 400)" opacity="0.09"></path>
        <path d="M356.07 339.78Q365.97 334.97 375.86 331.07 385.76 328.24 395.66 326.59 405.55 326.16 415.45 326.98 425.35 329.02 435.24 332.2 441.53 341.66 447.72 351.11 453.41 360.57 458.21 370.03 461.83 379.48 464.02 388.94 458.88 401.28 442.61 401.81 432.09 400.86 421.58 401.36 411.06 403.27 400.55 406.54 385.18 409.03 379.83 397.41 378.02 387.8 375.03 378.2 371.07 368.6 366.37 358.99 361.26 349.39 356.07 339.78"
              stroke-dasharray="11 2" transform="rotate(91.60465116279069, 400, 400)" opacity="0.72"></path>
        <path d="M368.23 343.48Q384.24 337.33 400.25 334.06 416.25 333.98 432.26 337.09 441.9 352.14 449.89 367.19 454.92 382.24 456.13 397.28 439.28 393.79 422.42 393.88 405.56 397.55 388.71 404.46 387.66 389.22 383.35 373.97 376.49 358.73 368.23 343.48"
              stroke-dasharray="10 3" transform="rotate(93.95348837209302, 400, 400)" opacity="0.76"></path>
        <path d="M380.55 347.65Q392.68 343.74 404.82 341.54 416.96 341.17 429.1 342.64 435.9 353.88 441.58 365.12 440.28 381.18 422.32 386.4 402.47 385.26 391.67 370.36 386.61 359 380.55 347.65"
              stroke-dasharray="7 10" transform="rotate(96.30232558139535, 400, 400)" opacity="0.73"></path>
        <path d="M392.85 352.39Q409.2 349.02 425.55 348.93 433.26 363.88 438.1 378.83 421.29 378.92 404.48 382.5 399.99 367.44 392.85 352.39"
              stroke-dasharray="10 3" transform="rotate(98.65116279069767, 400, 400)" opacity="0.80"></path>
    </g>
</svg>